<?xml version="1.0" encoding="utf-8"?>
<!-- Generator: Adobe Illustrator 17.1.0, SVG Export Plug-In . SVG Version: 6.00 Build 0)  -->
<!DOCTYPE svg PUBLIC "-//W3C//DTD SVG 1.1//EN" "http://www.w3.org/Graphics/SVG/1.1/DTD/svg11.dtd">
<svg version="1.1" id="Layer_1" xmlns="http://www.w3.org/2000/svg" xmlns:xlink="http://www.w3.org/1999/xlink" x="0px" y="0px"
	 viewBox="0 0 16 16" enable-background="new 0 0 16 16" xml:space="preserve">
<path fill="#589c0c" d="M16,0c0,0-3.5-0.4-6.7,2.8C7.7,4.3,6.4,6.3,5.4,8.1L2.9,7.5L1.3,9.1l2.8,1.4c-0.3,0.6-0.4,1-0.4,1l0.8,0.8
	c0,0,0.4-0.2,1-0.4l1.4,2.8l1.6-1.6L8,10.6c1.7-1,3.8-2.3,5.3-3.8C16.4,3.6,16,0,16,0z M12.8,4.8c-0.4,0.4-1.1,0.4-1.6,0
	c-0.4-0.4-0.4-1.1,0-1.6c0.4-0.4,1.1-0.4,1.6,0C13.2,3.6,13.2,4.3,12.8,4.8z"/>
<path fill="#589c0c" d="M4,14.2c-0.8,0.8-2.6,0.4-2.6,0.4S1,12.8,1.8,12c0.8-0.8,1.5-0.9,1.5-0.9S2,10.8,1.2,11.7
	c-1.6,1.6-1,4.2-1,4.2s2.6,0.6,4.2-1C5.3,14,5,12.7,5,12.7S4.8,13.4,4,14.2z"/>
</svg>
