<?xml version="1.0" encoding="utf-8"?>
<!-- Generator: Adobe Illustrator 17.1.0, SVG Export Plug-In . SVG Version: 6.00 Build 0)  -->
<!DOCTYPE svg PUBLIC "-//W3C//DTD SVG 1.1//EN" "http://www.w3.org/Graphics/SVG/1.1/DTD/svg11.dtd">
<svg version="1.1" id="Objects" xmlns="http://www.w3.org/2000/svg" xmlns:xlink="http://www.w3.org/1999/xlink" x="0px" y="0px"
	 viewBox="0 0 799.9 799.9" enable-background="new 0 0 799.9 799.9" xml:space="preserve">
<g>
	<path fill-rule="evenodd" clip-rule="evenodd" d="M323.3,193.5h195.4c6.2,0,11.3,5.1,11.3,11.3l0,0c0,6.2-5.1,11.3-11.3,11.3H323.3
		c-6.2,0-11.3-5.1-11.3-11.3l0,0C312,198.5,317.1,193.5,323.3,193.5z"/>
	<path fill-rule="evenodd" clip-rule="evenodd" d="M338.7,184.1c-11.5-16.6-18.5-34.4-18.5-49.1c0-43.1,45.1-18.8,100.8-18.8
		c55.7,0,100.8-22.2,100.8,18.8c0,15.2-6.7,32.8-17.8,49.1H338.7z"/>
	<path d="M301.2,187c-0.8-17.3-5.3-27.1-10.9-31.6c-0.4-0.3-0.9-0.6-1.3-0.9v-23.8c5.3,0.8,10.5,3.1,15.4,7.1
		c12.2,9.8,21.8,30.9,19,67.7h0c-0.1,1.2-0.4,2.3-0.8,3.5c-2.4,5.8-9,8.5-14.8,6.1c-7.1-2.9-13.3-6-18.8-9.2v-27
		C292.3,181.6,296.3,184.3,301.2,187z M289,154.5c-3.2-1.9-6.5-1.9-8.8-0.4c-2.5,1.5-4,4.8-3.1,8.9c1.1,4.8,4.7,10.3,11.9,16v27
		c-21.3-12.3-31.2-26-33.9-37.9c-3.4-14.8,3.1-27.1,13.5-33.4c6-3.6,13.1-5.1,20.4-3.9V154.5z"/>
	<path d="M291.3,203.8c-7.6-3.6-14.1-5.5-19.5-6.3V175c12.4,1.2,27.6,6.3,45.6,17.4c1.3,0.7,2.4,1.6,3.4,2.7
		c4,4.8,3.3,11.9-1.5,15.9c-18.5,15.3-34.5,22.8-47.4,25.1v-22.9C277.3,211.8,283.7,208.8,291.3,203.8z M271.8,197.6
		c-5.7-0.8-10.2-0.2-13.6,1.3c-4.1,1.8-6.1,5.2-5.9,8.3c0.2,3,2.3,5.8,6.4,6.9c3.4,0.9,7.8,0.8,13.1-0.7v22.9
		c-7.2,1.3-13.5,1-18.8-0.4c-14.7-3.8-22.6-15.4-23.3-27.5c-0.7-11.9,5.7-24.4,19.5-30.3c6-2.6,13.5-3.8,22.5-3V197.6z"/>
	<path d="M299.1,200.7c1.6-6,7.8-9.6,13.8-8c6,1.6,9.6,7.8,8,13.8c-4.9,18.1-24,33.3-48.1,42.1c-22.4,8.1-49.8,10.9-73.8,5.2
		c-6.1-1.4-9.8-7.5-8.4-13.6c1.4-6.1,7.5-9.8,13.6-8.4c19.6,4.7,42.2,2.3,60.9-4.5C282.7,221,296.2,211.2,299.1,200.7z"/>
	<path d="M298.7,203.2c0.2-6.2,5.4-11.1,11.6-10.9c6.2,0.2,11.1,5.4,10.9,11.6c0,1.1-0.1,2-0.2,2.8c-2.1,18.5-20.5,42.1-46.7,60.2
		c-25.4,17.5-58.5,30.7-91.3,29.6c-3.1-0.1-6.1-0.3-8.8-0.6c-6.2-0.7-10.7-6.3-10-12.5c0.7-6.2,6.3-10.7,12.5-10
		c2.5,0.3,4.9,0.5,7.1,0.5c27.5,0.9,55.8-10.5,77.8-25.7c21.1-14.6,35.7-31.9,37.1-44.2C298.7,203.7,298.7,203.4,298.7,203.2z"/>
	<g>
		<path fill-rule="evenodd" clip-rule="evenodd" d="M445.2,486.9c-1-0.6-1.9-1.2-2.9-1.8c-1.3-0.7-2.5-1.3-3.7-1.8l-7.1-2.8v45.9
			c4.2-0.9,7.8-2.2,10.8-4c1.9-1.1,3.6-2.4,5.1-3.9c3.8-3.9,5.7-8.9,5.7-15.2c-0.1-4.2-0.8-7.6-2.4-10.2
			C449.3,490.4,447.4,488.3,445.2,486.9z"/>
		<path fill-rule="evenodd" clip-rule="evenodd" d="M401.7,385.8c-3.3,1.5-5.9,3.6-7.8,6.3c-2,2.7-2.9,6.2-3,10.5
			c0.1,4,0.9,7.2,2.4,9.8c1.6,2.5,3.5,4.6,5.8,6.1c0.9,0.6,1.9,1.2,2.8,1.7c1.3,0.7,2.6,1.4,3.9,1.9l7.1,3.2v-42.7
			c-4.1,0.5-7.8,1.6-11,3L401.7,385.8z"/>
		<path fill-rule="evenodd" clip-rule="evenodd" d="M502.2,225.4H339.8c-88.5,49.6-158.6,168.3-158.6,250.3
			c0,117.5,107.4,212.8,239.8,212.8s239.8-95.3,239.8-212.8C660.8,393.6,590.8,274.9,502.2,225.4z M498.8,528.6
			c-3.6,8.4-8.6,15.6-15.2,21.7c-6.6,6-14.3,10.9-23.1,14.5c-5.7,2.3-11.8,4.2-18.2,5.4c-3.5,0.7-7.1,1.2-10.8,1.6v18.1
			c-0.1,2.6-0.9,4.7-2.6,6.5c-1.7,1.8-3.9,2.7-6.6,2.8c-2.7-0.1-4.9-1-6.6-2.8c-1.7-1.7-2.5-3.9-2.6-6.5v-17.4
			c-3.6-0.1-7.2-0.3-11-0.6c-2.6-0.2-5.3-0.6-8.1-1c-6.7-0.9-13.2-2.2-19.6-4c-6.4-1.8-12.1-4-17.4-6.6c-5.2-2.7-9.4-5.8-12.4-9.4
			c-3.1-3.7-4.7-7.8-4.7-12.5c0-3.3,0.8-6.6,2.6-10.1c1.7-3.4,4.4-6.3,8.1-8.6c3.7-2.4,8.4-3.6,14.2-3.7c3.7,0.1,7.3,0.6,10.8,1.6
			c3.5,1,7.1,2.2,10.8,3.6c3.7,1.4,7.8,2.7,12.1,3.9c1.1,0.3,2.3,0.6,3.6,0.9c3.4,0.7,7.1,1.2,11,1.5v-53c-3.7-1.1-7.3-2.3-11-3.6
			c-3.3-1.1-6.5-2.3-9.8-3.4c-6.9-2.5-13.5-5.5-19.7-8.8c-6.2-3.4-11.8-7.5-16.6-12.3c-4.8-4.8-8.6-10.7-11.4-17.5
			c-2.8-6.8-4.2-14.9-4.3-24.4c0.1-13.6,3.1-25.2,8.9-34.9c5.9-9.7,14.3-17.3,25.1-22.8c8.1-4.1,17.4-6.9,27.8-8.4
			c3.5-0.5,7.2-0.9,11-1.1v-17.8c0.1-2.6,1-4.7,2.8-6.5c1.7-1.7,3.9-2.7,6.5-2.7c2.5,0.1,4.7,1,6.5,2.7c1.7,1.8,2.7,4,2.7,6.5v17.8
			c3.4,0.2,7.1,0.5,10.8,0.9c1.7,0.2,3.4,0.4,5.1,0.7c5.6,0.8,11.2,1.9,16.7,3.4c5.5,1.5,10.5,3.4,15,5.8c4.5,2.4,8.1,5.3,10.8,8.8
			c2.7,3.4,4.1,7.6,4.1,12.3c-0.1,4.1-1.1,7.8-3.2,11.1c-2.1,3.3-5,5.9-8.7,7.9c-3.7,2-7.9,3-12.7,3c-3.1-0.1-6-0.4-8.5-1.2
			c-2.5-0.8-5.2-1.7-7.8-2.7c-2.7-1.1-5.7-2.1-9.1-3c-0.6-0.1-1.1-0.3-1.7-0.4c-3.1-0.7-6.7-1.2-10.8-1.5v49.8
			c3.7,1.2,7.3,2.4,10.8,3.6c3.7,1.3,7.3,2.5,11,3.8c7.1,2.5,13.7,5.4,19.8,8.6c6.1,3.3,11.6,7.2,16.2,11.7
			c4.7,4.6,8.3,10.1,11,16.6c2.7,6.5,4,14.3,4,23.5C504.3,510.7,502.5,520.2,498.8,528.6z"/>
	</g>
	<g>
		<path fill-rule="evenodd" clip-rule="evenodd" d="M564.5,248.2h127.3c4.8,0,8.7,3.9,8.7,8.7l0,0c0,4.8-3.9,8.7-8.7,8.7H582.1
			C576.5,259.6,570.6,253.8,564.5,248.2z"/>
		<path fill-rule="evenodd" clip-rule="evenodd" d="M801.2,465.4c0,90.5-82.6,163.8-184.5,163.8c-0.7,0-1.5,0-2.2,0
			c18.9-19.1,34.6-41.4,46.1-66.8c12.3-27.3,18.8-56.7,18.8-86.8c0-63.1-35.4-133.6-73.4-182.4c-5.4-7-11.1-13.8-17.1-20.5h90.4
			C747.3,311,801.2,402.3,801.2,465.4L801.2,465.4z M549.7,235.5c-2.7-4.5-5-9.1-6.7-13.5c3.4-4.9,5.5-10.8,5.5-17.2
			c0-6-1.8-11.6-4.9-16.3c10.7-11.2,39.4,0.4,73.1,0.4c42.8,0,77.6-17.1,77.6,14.5c0,11.7-5.2,25.3-13.7,37.8H556.4
			C554.2,239.2,552,237.3,549.7,235.5z"/>
		<path d="M539.4,226.2c0.1,0.5,0.3,1,0.4,1.5l-1.1-0.8C538.9,226.7,539.1,226.5,539.4,226.2z"/>
	</g>
	<g>
		<path fill-rule="evenodd" clip-rule="evenodd" d="M122.5,248.2h49.8c0.4,2.3,1.2,4.6,2.1,6.7c-8.6,0.3-16.5,4.3-21.9,10.7h-30.1
			c-4.8,0-8.7-3.9-8.7-8.7l0,0C113.8,252.2,117.7,248.2,122.5,248.2z"/>
		<path fill-rule="evenodd" clip-rule="evenodd" d="M225.7,627.4c-9.1,1.2-18.5,1.9-28,1.9c-101.9,0-184.5-73.3-184.5-163.8
			c0-63.1,53.9-154.5,122-192.6h12.9c-1.2,2.7-2,5.6-2.3,8.7c-1.8,16.3,10,31.1,26.4,32.9c3.4,0.4,6.9,0.6,10.3,0.7
			c13.7,0.4,27.5-1.3,41-4.7c-32.9,47.3-60.8,109.2-60.8,165.2c0,30,6.4,59.4,18.8,86.8C192.5,587,207.7,608.7,225.7,627.4
			L225.7,627.4z M134.3,241.1c-8.8-12.7-14.2-26.5-14.2-37.8c0-33.2,34.7-14.5,77.6-14.5c5.9,0,11.7-0.3,17.2-0.8
			c-2.8,6.6-4.1,13.9-3.6,21.4c0.1,1.7,0.3,3.4,0.5,5.1c-1.1-0.2-2.2-0.4-3.3-0.7c-15.9-3.8-32.1,6.2-35.9,22.1
			c-0.4,1.7-0.7,3.5-0.8,5.2H134.3z"/>
		<path d="M105.5,243.3c-0.6-13.3-4.1-20.8-8.4-24.3c-0.3-0.3-0.7-0.5-1-0.7V200c4,0.7,8.1,2.4,11.9,5.4
			c9.4,7.6,16.7,23.8,14.6,52.1h0c-0.1,0.9-0.3,1.8-0.6,2.7c-1.8,4.4-6.9,6.5-11.4,4.7c-5.4-2.3-10.3-4.6-14.5-7.1v-20.8
			C98.6,239.1,101.7,241.2,105.5,243.3z M96.1,218.3c-2.4-1.5-5-1.4-6.8-0.3c-1.9,1.2-3.1,3.7-2.4,6.8c0.9,3.7,3.6,7.9,9.2,12.3
			v20.8c-16.4-9.5-24-20-26.1-29.2c-2.7-11.4,2.4-20.8,10.4-25.7c4.6-2.8,10.1-3.9,15.7-3V218.3z"/>
		<path d="M97.9,256.2c-5.9-2.8-10.8-4.3-15-4.8v-17.3c9.5,0.9,21.3,4.8,35.1,13.4c1,0.5,1.8,1.2,2.6,2.1c3.1,3.7,2.5,9.2-1.2,12.2
			c-14.2,11.8-26.5,17.5-36.5,19.3v-17.6C87.1,262.4,92.1,260,97.9,256.2z M82.9,251.4c-4.4-0.6-7.8-0.2-10.4,1
			c-3.2,1.4-4.7,4-4.5,6.4c0.1,2.3,1.8,4.5,4.9,5.3c2.6,0.7,6,0.6,10.1-0.5v17.6c-5.5,1-10.4,0.8-14.4-0.3
			c-11.3-3-17.4-11.8-17.9-21.2c-0.5-9.2,4.4-18.8,15-23.3c4.6-2,10.4-3,17.3-2.3V251.4z"/>
		<path d="M103.8,253.8c1.2-4.6,6-7.4,10.6-6.2c4.6,1.2,7.4,6,6.2,10.6c-3.8,13.9-18.4,25.7-37,32.4c-17.2,6.2-38.3,8.4-56.8,4
			c-4.7-1.1-7.5-5.8-6.4-10.4c1.1-4.7,5.8-7.5,10.4-6.4c15.1,3.6,32.5,1.8,46.9-3.4C91.2,269.4,101.6,261.9,103.8,253.8z"/>
		<path d="M103.6,255.8c0.2-4.8,4.2-8.6,8.9-8.4c4.8,0.2,8.6,4.2,8.4,8.9c0,0.8-0.1,1.5-0.1,2.1c-1.6,14.3-15.8,32.4-36,46.4
			c-19.5,13.5-45,23.6-70.3,22.8c-2.4-0.1-4.7-0.2-6.8-0.5c-4.8-0.5-8.2-4.8-7.7-9.6c0.5-4.8,4.8-8.2,9.6-7.7
			c1.9,0.2,3.7,0.3,5.4,0.4c21.2,0.7,43-8.1,59.9-19.8c16.2-11.2,27.5-24.5,28.5-34C103.5,256.2,103.6,255.9,103.6,255.8z"/>
	</g>
</g>
</svg>
