<?xml version="1.0" encoding="utf-8"?>
<!-- Generator: Adobe Illustrator 17.1.0, SVG Export Plug-In . SVG Version: 6.00 Build 0)  -->
<!DOCTYPE svg PUBLIC "-//W3C//DTD SVG 1.1//EN" "http://www.w3.org/Graphics/SVG/1.1/DTD/svg11.dtd">
<svg version="1.1" id="Слой_1" xmlns="http://www.w3.org/2000/svg" xmlns:xlink="http://www.w3.org/1999/xlink" x="0px" y="0px"
	 viewBox="39 39 922 922" enable-background="new 39 39 922 922" xml:space="preserve">
<g>
	<path fill="#1D1D1B" d="M961.3,297.6c0-0.4,0.2-0.8,0.2-1.2c0-1.4-0.6-2.6-0.8-3.9c-0.3-2-0.5-4-1.2-5.9c-0.6-1.8-1.6-3.3-2.6-4.9
		c-0.9-1.6-1.8-3.1-3-4.5c-1.4-1.5-3-2.6-4.7-3.8c-1.1-0.8-1.9-1.9-3.1-2.5l-432.7-229c-0.8-0.4-1.8-0.4-2.6-0.8
		c-1.8-0.7-3.6-1.2-5.5-1.6c-1.8-0.3-3.6-0.6-5.4-0.6c-1.8,0-3.6,0.2-5.4,0.6c-1.9,0.4-3.7,0.9-5.5,1.6c-0.8,0.3-1.7,0.3-2.6,0.8
		l-432.7,229c-1.2,0.7-2,1.7-3.1,2.5c-1.7,1.2-3.3,2.3-4.7,3.8c-1.2,1.4-2.1,2.9-3,4.5c-1,1.6-1.9,3.1-2.6,4.9
		c-0.7,1.9-0.9,3.9-1.2,5.9c-0.2,1.3-0.8,2.5-0.8,3.9c0,0.4,0.2,0.8,0.2,1.2c0.1,1.9,0.7,3.7,1.1,5.6c0.5,1.9,0.8,3.8,1.6,5.5
		c0.2,0.4,0.1,0.8,0.3,1.2c0.4,0.7,1.1,1,1.5,1.6c2,3.2,4.6,5.9,7.7,8.1c1,0.7,1.9,1.5,3,2.1c4,2.1,8.4,3.6,13.2,3.6h865.4
		c4.8,0,9.2-1.5,13.2-3.6c1.1-0.6,2-1.3,3-2.1c3.1-2.2,5.7-4.9,7.7-8.1c0.4-0.7,1.2-0.9,1.5-1.6c0.2-0.4,0.2-0.8,0.3-1.2
		c0.8-1.7,1.1-3.6,1.6-5.5C960.6,301.3,961.2,299.5,961.3,297.6z M500,99.9l316.5,167.6H183.5L500,99.9z"/>
	<path fill="#1D1D1B" d="M396.3,748.5c0,15.9,12.9,28.8,28.8,28.8h149.6c15.9,0,28.8-12.9,28.8-28.8c0-12.3-7.8-22.7-18.7-26.8
		V411.5c10.9-4.1,18.7-14.5,18.7-26.8c0-15.9-12.9-28.8-28.8-28.8H425.2c-15.9,0-28.8,12.9-28.8,28.8c0,12.3,7.8,22.7,18.7,26.8
		v310.1C404.2,725.8,396.3,736.1,396.3,748.5z M472.7,719.6v-306h54.5v306H472.7z"/>
	<path fill="#1D1D1B" d="M146.9,748.5c0,15.9,12.9,28.8,28.8,28.8h149.6c15.9,0,28.8-12.9,28.8-28.8c0-12.3-7.8-22.7-18.7-26.8
		V411.5c10.9-4.1,18.7-14.5,18.7-26.8c0-15.9-12.9-28.8-28.8-28.8H175.8c-15.9,0-28.8,12.9-28.8,28.8c0,12.3,7.8,22.7,18.7,26.8
		v310.1C154.8,725.8,146.9,736.1,146.9,748.5z M223.3,719.6v-306h54.5v306H223.3z"/>
	<path fill="#1D1D1B" d="M645.7,748.5c0,15.9,12.9,28.8,28.8,28.8h149.6c15.9,0,28.8-12.9,28.8-28.8c0-12.3-7.8-22.7-18.7-26.8
		V411.5c10.9-4.1,18.7-14.5,18.7-26.8c0-15.9-12.9-28.8-28.8-28.8H674.6c-15.9,0-28.8,12.9-28.8,28.8c0,12.3,7.8,22.7,18.7,26.8
		v310.1C653.6,725.8,645.7,736.1,645.7,748.5z M722.1,719.6v-306h54.5v306H722.1z"/>
	<path fill="#1D1D1B" d="M76.3,840.3c0,15.9,12.9,28.8,28.8,28.8h789.7c15.9,0,28.8-12.9,28.8-28.8s-12.9-28.8-28.8-28.8H105.1
		C89.2,811.4,76.3,824.3,76.3,840.3z"/>
	<path fill="#1D1D1B" d="M926,903.8H74c-15.9,0-28.8,12.9-28.8,28.8S58,961.5,74,961.5H926c15.9,0,28.8-12.9,28.8-28.8
		S942,903.8,926,903.8z"/>
</g>
</svg>
