<?xml version="1.0" encoding="utf-8"?>
<!-- Generator: Adobe Illustrator 17.1.0, SVG Export Plug-In . SVG Version: 6.00 Build 0)  -->
<!DOCTYPE svg PUBLIC "-//W3C//DTD SVG 1.1//EN" "http://www.w3.org/Graphics/SVG/1.1/DTD/svg11.dtd">
<svg version="1.1" id="objects" xmlns="http://www.w3.org/2000/svg" xmlns:xlink="http://www.w3.org/1999/xlink" x="0px" y="0px"
	 viewBox="0 0 51.4 44.3" enable-background="new 0 0 51.4 44.3" xml:space="preserve">
<g>
	<path fill="#2DC100" d="M35.7,14.6c-4.8,0.2-8.9,1.7-12.3,5c-3.4,3.3-5,7.3-4.5,12.4c-1.9-0.2-3.6-0.5-5.3-0.6
		c-0.6,0-1.3,0-1.8,0.3c-1.7,0.9-3.2,2-5.1,3.2c0.3-1.6,0.6-2.9,1-4.3c0.3-1,0.2-1.5-0.7-2.1c-5.7-4-8.1-10.1-6.3-16.3
		C2.3,6.3,6.4,2.8,11.9,0.9C19.6-1.5,28.1,1,32.7,7C34.4,9.2,35.4,11.7,35.7,14.6L35.7,14.6z M13.8,12.6c0-1.1-0.9-2.2-2.1-2.2
		c-1.2,0-2.2,0.9-2.2,2.1c0,1.2,0.9,2.2,2.1,2.2C12.7,14.7,13.7,13.8,13.8,12.6L13.8,12.6z M25.2,10.4c-1.2,0-2.2,1-2.2,2.2
		c0,1.2,1,2.1,2.2,2.1c1.2,0,2.1-1,2.1-2.2C27.4,11.3,26.4,10.4,25.2,10.4z"/>
	<path fill="#2DC100" d="M46.4,44.3c-1.5-0.7-2.9-1.7-4.4-1.8c-1.5-0.2-3,0.7-4.6,0.9c-4.7,0.5-8.9-0.8-12.3-4
		c-6.6-6.1-5.6-15.4,2-20.4c6.8-4.4,16.7-3,21.5,3.2c4.2,5.4,3.7,12.5-1.4,17c-1.5,1.3-2,2.4-1.1,4.1C46.3,43.5,46.3,43.9,46.4,44.3
		L46.4,44.3z M29.2,27.7c1,0,1.8-0.8,1.8-1.7c0-1-0.8-1.8-1.8-1.9c-1,0-1.8,0.9-1.8,1.8C27.5,26.9,28.3,27.7,29.2,27.7L29.2,27.7z
		 M40.3,24.1c-0.9,0-1.7,0.8-1.8,1.7c0,1,0.7,1.8,1.7,1.8c1,0,1.7-0.7,1.8-1.7C42.1,25,41.3,24.1,40.3,24.1z"/>
</g>
</svg>
