<?xml version="1.0" encoding="utf-8"?>
<!-- Generator: Adobe Illustrator 17.1.0, SVG Export Plug-In . SVG Version: 6.00 Build 0)  -->
<!DOCTYPE svg PUBLIC "-//W3C//DTD SVG 1.1//EN" "http://www.w3.org/Graphics/SVG/1.1/DTD/svg11.dtd">
<svg version="1.1" id="Layer_1" xmlns="http://www.w3.org/2000/svg" xmlns:xlink="http://www.w3.org/1999/xlink" x="0px" y="0px"
	 viewBox="0 0 163.1 126.3" enable-background="new 0 0 163.1 126.3" xml:space="preserve">
<g>
	<g>
		<path fill="#FF6555" d="M148.6,126.3c3.7,0,6.8-1.2,9.5-3.6l-46.2-46.2c-1.1,0.8-2.2,1.6-3.2,2.3c-3.5,2.5-6.3,4.5-8.4,6
			c-2.2,1.4-5,2.9-8.6,4.4c-3.6,1.5-6.9,2.2-10,2.2h-0.1h-0.1c-3.1,0-6.4-0.7-10-2.2c-3.6-1.5-6.4-2.9-8.6-4.4c-2.2-1.4-5-3.4-8.4-6
			c-1-0.7-2-1.5-3.2-2.3L5,122.7c2.7,2.4,5.9,3.6,9.5,3.6H148.6z"/>
		<path fill="#FF6555" d="M11.1,47.4c-3.5-2.3-6.5-4.9-9.2-7.9v70.3L42.6,69C34.5,63.3,24,56.1,11.1,47.4z"/>
		<path fill="#FF6555" d="M152.1,47.4c-12.4,8.4-22.9,15.6-31.6,21.7l40.7,40.7V39.5C158.6,42.4,155.6,45,152.1,47.4z"/>
		<path fill="#FF6555" d="M148.6,0h-134C9.9,0,6.3,1.6,3.8,4.7C1.3,7.9,0,11.8,0,16.6c0,3.8,1.7,8,5,12.4c3.3,4.5,6.9,8,10.7,10.5
			c2.1,1.5,8.3,5.8,18.7,13c5.6,3.9,10.5,7.3,14.7,10.2c3.6,2.5,6.6,4.6,9.2,6.4c0.3,0.2,0.7,0.5,1.4,1c0.7,0.5,1.5,1.1,2.5,1.8
			c2,1.4,3.6,2.6,4.9,3.5c1.3,0.9,2.9,1.9,4.7,3c1.9,1.1,3.6,1.9,5.2,2.5c1.6,0.5,3.2,0.8,4.6,0.8h0.1h0.1c1.4,0,2.9-0.3,4.6-0.8
			c1.6-0.5,3.4-1.4,5.2-2.5c1.9-1.1,3.4-2.1,4.7-3c1.3-0.9,2.9-2,4.9-3.5c1-0.7,1.9-1.3,2.5-1.8c0.6-0.4,1.1-0.8,1.4-1
			c2-1.4,5.1-3.5,9.2-6.4c7.5-5.2,18.7-13,33.4-23.2c4.4-3.1,8.1-6.8,11.1-11.2c3-4.4,4.5-9,4.5-13.7c0-4-1.4-7.4-4.3-10.3
			C155.9,1.4,152.5,0,148.6,0z"/>
	</g>
</g>
</svg>
