<?xml version="1.0" encoding="iso-8859-1"?>
<!-- Generator: Adobe Illustrator 19.0.0, SVG Export Plug-In . SVG Version: 6.00 Build 0)  -->
<svg version="1.1" id="Capa_1" xmlns="http://www.w3.org/2000/svg" xmlns:xlink="http://www.w3.org/1999/xlink" x="0px" y="0px"
	 viewBox="0 0 531.737 531.737" style="enable-background:new 0 0 531.737 531.737;" xml:space="preserve">
<g>
	<path d="M505.177,309.868c-2.04-6.993-8.159-11.947-15.444-11.947h-48.662l-23.02-84.211c-2.04-6.993-8.159-11.947-15.444-11.947
		h-49.536l-23.02-84.211c-2.04-6.993-8.159-11.947-15.444-11.947h-99.946c-7.285,0-13.695,4.954-15.444,11.947l-22.437,84.211
		H125.79c-7.285,0-13.695,4.954-15.444,11.947l-22.437,84.211H41.579c-7.285,0-13.695,4.954-15.444,11.947L0.493,406.026
		c-1.166,4.954-0.291,9.907,2.914,13.987c2.914,4.079,7.867,6.119,12.821,6.119h151.813c4.954,0,9.324-2.331,12.53-5.828
		c2.914,3.788,7.576,5.828,12.53,5.828h151.522c3.497,0,6.993-1.166,9.616-3.205c2.622,2.04,6.119,3.205,9.616,3.205h151.813
		c4.954,0,9.616-2.331,12.821-6.411c2.914-4.079,4.079-9.033,2.622-13.987L505.177,309.868z M407.853,297.921h-18.357h-71.099
		h-20.689l17.192-64.105h26.225h49.536L407.853,297.921z M264.199,297.921l-17.483-64.105h34.675L264.199,297.921L264.199,297.921z
		 M226.901,137.658h75.469l17.483,64.105h-17.483h-76.344h-16.026L226.901,137.658z M138.028,233.816h50.993h24.477l17.483,64.105
		H218.16h-76.344h-20.689L138.028,233.816z M36.916,394.079l17.192-64.105h46.331h29.43l17.483,64.105H36.916z M180.279,394.662
		l-17.483-64.688h34.675L180.279,394.662z M213.497,394.079l17.192-64.105h21.271h24.768h29.43l17.483,64.105H213.497z
		 M354.238,384.464l-14.861-54.49h29.43L354.238,384.464z M384.834,394.079l17.192-64.105h26.808h48.662l17.483,64.105H384.834z"/>
</g>
<g>
</g>
<g>
</g>
<g>
</g>
<g>
</g>
<g>
</g>
<g>
</g>
<g>
</g>
<g>
</g>
<g>
</g>
<g>
</g>
<g>
</g>
<g>
</g>
<g>
</g>
<g>
</g>
<g>
</g>
</svg>
