<?xml version="1.0" encoding="utf-8"?>
<!-- Generator: Adobe Illustrator 17.1.0, SVG Export Plug-In . SVG Version: 6.00 Build 0)  -->
<!DOCTYPE svg PUBLIC "-//W3C//DTD SVG 1.1//EN" "http://www.w3.org/Graphics/SVG/1.1/DTD/svg11.dtd">
<svg version="1.1" id="Layer_1" xmlns:sketch="http://www.bohemiancoding.com/sketch/ns"
	 xmlns="http://www.w3.org/2000/svg" xmlns:xlink="http://www.w3.org/1999/xlink" x="0px" y="0px" viewBox="9.5 4.2 143.8 89.8"
	 enable-background="new 9.5 4.2 143.8 89.8" xml:space="preserve">
<title></title>
<g id="Paypal" transform="translate(-1.000000, 0.000000)">
	<path id="pal" fill="#306FC5" d="M152.8,33.5h-4.2c0,0,0,0,0,0l0,0c-1,0-1.9,0.7-2.2,1.6c0,0,0,0.1,0,0.1c0,0-0.1,0.4-0.3,1.2
		l-5.8,25.5c-0.1,0.6-0.2,1-0.2,1l0,0c-0.2,0.9,0.3,1.6,1.3,1.7l0,0h4.4c1,0,1.9-0.7,2.2-1.6c0,0,0-0.1,0-0.1l6.3-27.7l0,0
		C154.4,34.2,153.8,33.5,152.8,33.5z M131.2,58.5c-0.6,0.4-1.2,0.7-1.8,0.9c-0.9,0.3-1.7,0.5-2.4,0.5c-1.2,0-2.1-0.2-2.7-0.5
		c-0.6-0.3-0.9-0.9-0.9-1.7c0-0.9,0.2-1.7,0.7-2.2c0.5-0.5,1.2-1,2-1.3c0.8-0.3,1.9-0.5,3.1-0.7c1.1-0.1,3.2-0.4,3.5-0.4
		c0.3,0,0.5-0.1,0.3,0.6c-0.1,0.3-0.7,2.7-0.9,3.9C131.9,57.9,131.4,58.4,131.2,58.5C131.2,58.5,131.4,58.4,131.2,58.5z M139.5,41.3
		c-1.8-1-4.6-1.5-8.4-1.5c-1.9,0-3.8,0.1-5.7,0.4c-1.4,0.2-1.5,0.2-2.4,0.4c-1.8,0.4-2.1,2.1-2.1,2.1l-0.6,2.3
		c-0.3,1.5,0.5,1.4,0.9,1.3c0.8-0.2,1.2-0.5,2.8-0.8c1.5-0.3,3.1-0.6,4.4-0.6c1.9,0,3.3,0.2,4.3,0.6c1,0.4,1.4,1.1,1.4,2.1
		c0,0.2,0,0.5-0.1,0.6c-0.1,0.2-0.2,0.4-0.7,0.4c-2.7,0.2-4.6,0.4-6.9,0.7c-2.3,0.3-4.3,0.9-6,1.6c-1.8,0.8-3.1,1.8-4,3.1
		c-0.9,1.3-1.3,2.9-1.3,4.8c0,1.8,0.7,3.2,1.9,4.3c1.3,1.1,2.9,1.7,5,1.7c1.3,0,2.2-0.1,2.9-0.3c0.7-0.2,1.5-0.4,2.3-0.8
		c0.6-0.2,1.2-0.6,1.9-1c0.7-0.4,1.2-0.8,1.8-1.1l0,0l-0.2,0.7c0,0,0,0,0,0l0,0c-0.2,0.9,0.4,1.6,1.3,1.7l0,0h0.1l0,0
		c0.6,0,2.7,0,3.6,0h0.7c0,0,0,0,0.1,0c0.9-0.1,1.8-0.8,2-1.7l3.4-14.4c0.1-0.3,0.1-0.7,0.2-1.2c0-0.5,0.1-0.8,0.1-1.1
		C142.2,43.8,141.3,42.3,139.5,41.3L139.5,41.3z M118.9,38c-0.6-1.1-1.5-2-2.6-2.7c-1.1-0.7-2.5-1.2-4.1-1.5
		c-1.6-0.3-3.4-0.4-5.5-0.4l-9.8,0c-1,0-2,0.8-2.2,1.7l-6.6,28c-0.2,1,0.4,1.7,1.4,1.7l4.7,0c1,0,2-0.8,2.3-1.7l1.6-6.8
		c0.2-1,1.2-1.7,2.3-1.7h1.3c5.7,0,10.2-1.1,13.4-3.4c3.2-2.3,4.8-5.3,4.8-9.1C119.8,40.5,119.5,39.1,118.9,38z M108.7,47.2
		c-1.4,1-3.4,1.5-5.9,1.5h-1.2c-1,0-1.7-0.8-1.4-1.7l1.4-5.9c0.2-0.9,1.2-1.7,2.2-1.7l1.5,0c1.8,0,3.1,0.3,4.1,0.9
		c0.9,0.6,1.4,1.5,1.4,2.7C110.9,44.7,110.2,46.2,108.7,47.2"/>
	<path id="pay" fill="#265697" d="M85.8,39.9c-0.9,0-2.1,0.7-2.6,1.6c0,0-6,10-6.6,11c-0.3,0.5-0.6,0.2-0.7,0c0-0.2-1.9-11-1.9-11
		c-0.2-0.9-1.1-1.6-2.3-1.6l-3.7,0c-0.9,0-1.5,0.7-1.3,1.6c0,0,2.9,15.8,3.4,19.6c0.3,2.1,0,2.4,0,2.4l-3.7,6.3
		c-0.5,0.9-0.2,1.6,0.7,1.6l4.3,0c0.9,0,2.1-0.7,2.6-1.6l16.6-27.5c0,0,1.6-2.4,0.1-2.3C89.8,39.9,85.8,39.9,85.8,39.9z M54.6,58.5
		c-0.6,0.4-1.2,0.7-1.8,0.9c-0.9,0.3-1.7,0.5-2.5,0.5c-1.2,0-2.1-0.2-2.7-0.5c-0.6-0.3-0.9-0.9-0.9-1.7c0-0.9,0.2-1.7,0.7-2.2
		c0.5-0.5,1.1-1,2-1.3c0.9-0.3,1.9-0.5,3.1-0.7c1.1-0.1,3.2-0.4,3.5-0.4c0.3,0,0.4-0.1,0.3,0.6c-0.1,0.3-0.7,2.7-0.9,3.9
		C55.3,57.9,54.8,58.4,54.6,58.5C54.6,58.5,54.8,58.4,54.6,58.5z M62.9,41.3c-1.8-1-4.6-1.5-8.4-1.5c-1.9,0-3.8,0.1-5.7,0.4
		c-1.4,0.2-1.5,0.2-2.4,0.4c-1.8,0.4-2.1,2.1-2.1,2.1l-0.6,2.3c-0.3,1.5,0.5,1.4,0.9,1.3c0.8-0.2,1.2-0.5,2.8-0.8
		c1.5-0.3,3.1-0.6,4.4-0.6c1.9,0,3.3,0.2,4.3,0.6c1,0.4,1.4,1.1,1.4,2.1c0,0.2,0,0.5-0.1,0.6c-0.1,0.2-0.2,0.4-0.7,0.4
		c-2.7,0.2-4.6,0.4-6.9,0.7c-2.3,0.3-4.3,0.9-6,1.6c-1.8,0.8-3.1,1.8-4,3.1c-0.9,1.3-1.3,2.9-1.3,4.8c0,1.8,0.7,3.2,1.9,4.3
		c1.3,1.1,2.9,1.7,5,1.7c1.3,0,2.2-0.1,2.9-0.3c0.7-0.2,1.5-0.4,2.3-0.8c0.6-0.2,1.2-0.6,1.9-1c0.7-0.4,1.2-0.8,1.8-1.1l0,0
		l-0.2,0.7c0,0,0,0,0,0l0,0c-0.2,0.9,0.3,1.6,1.3,1.7l0,0h0.1l0,0c0.6,0,2.7,0,3.6,0h0.7c0,0,0.1,0,0.1,0c0.9-0.1,1.8-0.8,2-1.7
		l3.4-14.4c0.1-0.3,0.1-0.7,0.2-1.2c0-0.5,0.1-0.8,0.1-1.1C65.6,43.8,64.7,42.3,62.9,41.3z M41.5,38c-0.6-1.1-1.5-2-2.6-2.7
		c-1.1-0.7-2.5-1.2-4.1-1.5c-1.6-0.3-3.4-0.4-5.5-0.4l-9.8,0c-1,0-2,0.8-2.2,1.7l-6.6,28c-0.2,1,0.4,1.7,1.4,1.7l4.7,0
		c1,0,2-0.8,2.3-1.7l1.6-6.8c0.2-1,1.2-1.7,2.3-1.7h1.3c5.7,0,10.2-1.1,13.4-3.4c3.2-2.3,4.8-5.3,4.8-9.1
		C42.4,40.5,42.1,39.1,41.5,38z M31.3,47.2c-1.4,1-3.4,1.5-5.9,1.5h-1.2c-1,0-1.7-0.8-1.4-1.7l1.4-5.9c0.2-0.9,1.2-1.7,2.2-1.7
		l1.5,0c1.8,0,3.1,0.3,4.1,0.9c0.9,0.6,1.4,1.5,1.4,2.7C33.5,44.7,32.8,46.2,31.3,47.2"/>
</g>
</svg>
