<?xml version="1.0" encoding="utf-8"?>
<!-- Generator: Adobe Illustrator 17.1.0, SVG Export Plug-In . SVG Version: 6.00 Build 0)  -->
<!DOCTYPE svg PUBLIC "-//W3C//DTD SVG 1.1//EN" "http://www.w3.org/Graphics/SVG/1.1/DTD/svg11.dtd">
<svg version="1.1" id="Layer_1" xmlns="http://www.w3.org/2000/svg" xmlns:xlink="http://www.w3.org/1999/xlink" x="0px" y="0px"
	 viewBox="0 0 102.7 181.3" enable-background="new 0 0 102.7 181.3" xml:space="preserve">
<path fill="#437582" d="M89.5,0H13.2C5.9,0,0,5.9,0,13.2v154.9c0,7.3,5.9,13.2,13.2,13.2h76.3c7.3,0,13.2-5.9,13.2-13.2V13.2
	C102.7,5.9,96.8,0,89.5,0z M32.5,8h37.7c0.9,0,1.7,1.4,1.7,3.2c0,1.8-0.8,3.2-1.7,3.2H32.5c-1,0-1.7-1.4-1.7-3.2
	C30.8,9.4,31.6,8,32.5,8z M51.3,168.3c-4.6,0-8.4-3.8-8.4-8.4c0-4.6,3.8-8.4,8.4-8.4c4.6,0,8.4,3.8,8.4,8.4
	C59.7,164.5,56,168.3,51.3,168.3z M92.8,139.4H9.9V22.3h82.9V139.4z"/>
</svg>
