<?xml version="1.0" encoding="utf-8"?>
<!-- Generator: Adobe Illustrator 17.1.0, SVG Export Plug-In . SVG Version: 6.00 Build 0)  -->
<!DOCTYPE svg PUBLIC "-//W3C//DTD SVG 1.1//EN" "http://www.w3.org/Graphics/SVG/1.1/DTD/svg11.dtd">
<svg version="1.1" id="Layer_1" xmlns="http://www.w3.org/2000/svg" xmlns:xlink="http://www.w3.org/1999/xlink" x="0px" y="0px"
	 viewBox="0 0 1000 1000" enable-background="new 0 0 1000 1000" xml:space="preserve">
<path d="M958.3,416.7H604.2c-12.5,0-20.8-8.3-20.8-20.8V41.7c0-25-16.7-41.7-41.7-41.7h-83.3c-25,0-41.7,16.7-41.7,41.7v354.2
	c0,12.5-8.3,20.8-20.8,20.8H41.7c-25,0-41.7,16.7-41.7,41.7v83.3c0,25,16.7,41.7,41.7,41.7h354.2c12.5,0,20.8,8.3,20.8,20.8v354.2
	c0,25,16.7,41.7,41.7,41.7h83.3c25,0,41.7-16.7,41.7-41.7V604.2c0-12.5,8.3-20.8,20.8-20.8h354.2c25,0,41.7-16.7,41.7-41.7v-83.3
	C1000,433.3,983.3,416.7,958.3,416.7z"/>
</svg>
