<?xml version="1.0" encoding="utf-8"?>
<!-- Generator: Adobe Illustrator 17.1.0, SVG Export Plug-In . SVG Version: 6.00 Build 0)  -->
<!DOCTYPE svg PUBLIC "-//W3C//DTD SVG 1.1//EN" "http://www.w3.org/Graphics/SVG/1.1/DTD/svg11.dtd">
<svg version="1.1" id="Layer_1" xmlns="http://www.w3.org/2000/svg" xmlns:xlink="http://www.w3.org/1999/xlink" x="0px" y="0px"
	 viewBox="28.5 3.5 30 46.6" enable-background="new 28.5 3.5 30 46.6" xml:space="preserve">
<path fill="#F68E1F" d="M53.6,24.7c-0.3-1.2-0.8-2.1-1.6-2.8c-0.3-0.3-0.6-0.5-1-0.7c-0.2-0.1-0.3-0.2-0.6-0.3
	c-0.4-0.2-0.9-0.3-1.6-0.3c0.3-0.2,0.8-0.2,1.3-0.2c0.4,0,0.8,0.2,1.1,0.3c0.3,0.2,0.6,0.3,0.9,0.5c0.7-2.2,0.4-5.1-0.4-7.1
	c-0.8-2-1.9-3.7-3.4-5c-1.5-1.3-3.2-2.4-5.5-2.8c-1.1-0.2-2.6-0.2-3.6,0c-1.1,0.3-2,0.8-2.8,1.4c-0.7,0.7-1.5,1.3-2,2.3
	c-0.2,0.2-0.3,0.5-0.4,0.7c-0.1,0.3-0.2,0.5-0.3,0.7c-0.2,0.5-0.4,1-0.5,1.6c-0.3,1.1-0.3,2.6-0.1,3.7c0.1,1.3,0.5,2.3,0.9,3.3
	c0.2,0.5,0.5,1,0.7,1.4c0.3,0.4,0.6,0.8,0.9,1.2c0.7,0.7,1.4,1.4,2.2,2c1.7,1.1,3.6,2,6.3,2.1c0.1-0.1-0.1-0.3-0.1-0.5
	c0-0.2-0.1-0.3-0.1-0.5c0-0.4,0-0.8,0-1.1c0.1,0,0.1,0.2,0.2,0.2c0.1,0.1,0.1,0.2,0.2,0.2c0.1,0.2,0.2,0.3,0.3,0.5
	c0.3,0.3,0.4,0.6,0.8,0.8c0.3,0.3,0.6,0.4,0.9,0.6c0.3,0.2,0.6,0.4,1,0.5c0.7,0.3,1.5,0.5,2.4,0.6c0.9,0.1,1.7,0.3,2.5,0.5
	c0.7,0.3,1.5,0.5,2.1,0.9c0.3,0.2,0.6,0.4,0.9,0.6c0.1,0.1,0.3,0.2,0.4,0.3c0.2,0.1,0.3,0.2,0.4,0.3c0.5,0.5,1,1,1.5,1.6
	c0.2,0.3,0.4,0.6,0.6,1c0.1,0.1,0.2,0.4,0.3,0.5c0,0.2,0.2,0.4,0,0.6c-0.2,0-0.2-0.2-0.3-0.3c-0.1-0.1-0.2-0.2-0.2-0.4
	c-0.4-0.4-0.7-0.9-1.2-1.2c-0.4-0.4-0.8-0.7-1.3-1c-0.9-0.7-2-1.2-3.2-1.5c-1.2-0.4-2.6-0.5-4.2-0.4c-0.7,0.1-1.4,0.2-2,0.4
	c-0.6,0.2-1.3,0.2-2,0.3c-2.7,0.2-5.7-0.5-7.8-1.5c-1.1-0.5-2.1-1.1-2.9-1.8c-0.5-0.3-0.8-0.8-1.2-1.2c-0.4-0.4-0.7-0.8-1-1.4
	c-0.4-0.4-0.6-1-0.9-1.5c-0.2-0.6-0.5-1.1-0.6-1.8c-0.2-0.6-0.3-1.3-0.4-2c0-0.2-0.1-0.6-0.1-0.9c0,0,0-0.1,0-0.1c0-0.3-0.1-0.7,0-1
	c0-0.7,0.1-1.5,0.2-2.1c0.1-0.7,0.3-1.3,0.5-1.9c0.2-0.6,0.5-1.1,0.7-1.7c0.2-0.2,0.3-0.5,0.4-0.8c0.1-0.3,0.3-0.5,0.4-0.7
	c0.1-0.1,0.1-0.2,0.3-0.3c0.1-0.1,0.2-0.2,0.2-0.4c0.1-0.1,0.2-0.2,0.3-0.3c0.1-0.1,0.2-0.2,0.3-0.3c0.4-0.4,0.7-0.8,1.2-1.2
	C34.1,7,34.5,6.7,35,6.3c0.3-0.1,0.5-0.3,0.7-0.5c0.2-0.2,0.5-0.3,0.7-0.5c0.6-0.2,1-0.6,1.6-0.8c0.5-0.3,1.1-0.4,1.7-0.6
	c1.3-0.3,2.6-0.6,4.1-0.5c0.1,0,0.1-0.1,0.1,0c3,0.1,5.2,1,7.1,2.2c1.8,1.2,3.3,2.9,4.3,4.9c1,2,1.6,4.8,1.1,7.7
	c-0.2,1.3-0.6,2.5-1.1,3.5c-0.3,0.5-0.5,1-0.8,1.5c-0.1,0.2-0.3,0.5-0.5,0.7c-0.1,0.1-0.1,0.2-0.2,0.3c0,0.1-0.1,0.1-0.1,0.2
	C53.7,24.6,53.6,24.6,53.6,24.7C53.6,24.7,53.6,24.7,53.6,24.7z"/>
<path fill="#F68E1F" d="M52.8,25.5c-0.4-0.2-0.5-0.6-0.6-1c0-0.1-0.1-0.3,0-0.5c0,0,0,0,0.1,0c0.1-0.1,0.2,0,0.3,0.1
	c0.2,0.2,0.3,0.5,0.4,0.8C52.9,25.2,53,25.5,52.8,25.5z"/>
<path fill="#F68E1F" d="M49.9,25C49.9,24.9,49.9,25,49.9,25c0.6,0.1,0.9,0.5,0.9,1.1c-0.1,0.3-0.2,0.5-0.6,0.6c-0.8,0-1.2-0.7-1-1.5
	C49.4,25.1,49.5,24.9,49.9,25z"/>
<path fill="#0269B3" d="M34,47c0.1,0.4,0.3,0.7,0.5,1c0.2,0.3,0.5,0.5,0.8,0.7c0.3,0.2,0.6,0.4,1,0.5c0.2,0.1,0.4,0.1,0.6,0.2
	c0.2,0.1,0.4,0.1,0.4,0.4c0,0.3-0.2,0.4-0.4,0.4c-0.2,0-0.5,0-0.7-0.1c-0.5-0.1-0.9-0.2-1.3-0.4c-0.8-0.3-1.5-0.8-2.1-1.3
	c-0.1-0.2-0.3-0.3-0.4-0.5c-0.1-0.2-0.2-0.4-0.3-0.6c-1-0.1-1.7-0.6-2.3-1.1c-0.5-0.6-1-1.4-1.2-2.4c-0.2-1-0.1-2.1,0.1-3
	c0.5-1.8,1.7-3,3.8-3.1c0.6,0,1.1,0.1,1.6,0.3c0.5,0.2,0.9,0.5,1.3,0.8c0,0,0,0,0.1,0.1c0.1,0.1,0.3,0.3,0.4,0.4c0,0,0,0.1,0,0.1
	c0,0.1,0.1,0.1,0.1,0.1c0,0,0,0.1,0,0.1c0,0,0.1,0.1,0.1,0.2c0,0,0.1,0,0.1,0.1c0.1,0.1,0.1,0.2,0.1,0.4c0.1,0.1,0.1,0.2,0.2,0.4
	c0.1,0.4,0.2,0.8,0.3,1.3c0.1,1.3-0.1,2.5-0.6,3.4c-0.2,0.5-0.6,0.8-0.9,1.2C34.9,46.6,34.4,46.8,34,47z M32.4,38.7
	c-0.3,0-0.5,0.2-0.7,0.2c-0.2,0.1-0.3,0.2-0.5,0.4c-0.2,0.1-0.2,0.4-0.4,0.5c-0.1,0.3-0.3,0.7-0.3,1.1c-0.1,0.4-0.1,0.9-0.1,1.3
	c0,1.1,0.2,2.3,0.7,2.9c0.3,0.3,0.6,0.6,1,0.8c0.2,0,0.4,0.1,0.7,0.1c0.1,0,0.4,0,0.5-0.1c0.2,0,0.3-0.1,0.4-0.1
	c0.1-0.1,0.2-0.2,0.3-0.2c0.1-0.1,0.2-0.3,0.4-0.4c0.1-0.1,0.1-0.2,0.2-0.3c0.6-1.1,0.6-3.1,0.3-4.4c-0.1-0.5-0.3-0.8-0.6-1.2
	c-0.2-0.3-0.5-0.5-0.9-0.6C33.1,38.7,32.8,38.6,32.4,38.7C32.4,38.7,32.4,38.7,32.4,38.7C32.4,38.7,32.4,38.7,32.4,38.7z"/>
<path fill="#0269B3" d="M39.4,37.8c0.5,0,1.1,0,1.6,0c0.1,0.2,0.1,0.3,0.1,0.5c0,2.4,0,5,0,7.5c0,0.2,0,0.4,0,0.6
	c0,0.2,0,0.3-0.1,0.5c-0.2,0.1-0.6,0-0.9,0c-0.3,0-0.6,0-0.8-0.1c-0.1-2.9-0.1-6.1,0-9C39.3,37.8,39.3,37.8,39.4,37.8z"/>
<path fill="#0269B3" d="M43.3,37.8c0.5,0,1,0,1.6,0c0.1,0.2,0.2,0.5,0.2,0.8c0.5,1.8,0.9,3.6,1.4,5.4c0.1,0,0.1-0.1,0.1-0.2
	c0,0,0-0.2,0.1-0.2c0-0.1,0.1-0.2,0.1-0.4c0.1-0.2,0.2-0.5,0.3-0.8c0.1-0.5,0.3-1,0.5-1.6c0.1-0.5,0.3-1,0.5-1.6
	c0.2-0.5,0.3-1.1,0.5-1.5c0.2,0,0.4,0,0.7,0c0.2,0.4,0.3,1,0.5,1.5c0.1,0.5,0.3,1,0.5,1.6c0.3,1,0.7,2.1,1,3.1
	c0.1-0.2,0.1-0.5,0.2-0.8c0.1-0.3,0.1-0.5,0.2-0.8c0.3-1,0.5-2.1,0.8-3.1c0.1-0.5,0.2-1.1,0.4-1.5c0.4-0.1,1-0.1,1.4,0
	c0,0.4-0.1,0.8-0.3,1.2c-0.1,0.4-0.2,0.8-0.3,1.2c-0.2,0.7-0.4,1.5-0.7,2.3c-0.2,0.8-0.4,1.5-0.6,2.3c-0.1,0.4-0.2,0.8-0.3,1.2
	c-0.1,0.4-0.2,0.8-0.4,1.1c-0.3,0-0.6,0-0.9,0c-0.2-0.4-0.3-1-0.5-1.4c-0.5-1.5-1-2.9-1.4-4.3c-0.2,0.2-0.2,0.5-0.3,0.7
	c-0.1,0.3-0.1,0.5-0.2,0.7c-0.1,0.5-0.3,0.9-0.4,1.5c-0.2,0.5-0.3,1-0.5,1.5c-0.2,0.4-0.3,1-0.5,1.4c-0.2,0.1-0.6,0-0.9,0
	c-0.2-0.3-0.3-0.7-0.4-1.1c-0.1-0.4-0.2-0.8-0.3-1.1c-0.2-0.8-0.4-1.5-0.6-2.3c-0.2-0.7-0.4-1.5-0.7-2.3c-0.1-0.4-0.2-0.8-0.3-1.1
	c-0.1-0.4-0.3-0.8-0.2-1.2C43.3,37.8,43.3,37.8,43.3,37.8z"/>
<path fill="#0269B3" d="M56.4,37.8c0.5,0,1.1,0,1.6,0c0.1,0.3,0.1,0.7,0.1,1.1c0,2.3,0,4.7,0,7c0,0.4,0,0.7-0.1,1.1
	c-0.4,0-0.9,0.1-1.3,0c-0.1,0-0.3,0-0.4-0.1c-0.1-0.3-0.1-0.7-0.1-1.1c0-2.2,0-4.5,0-6.9C56.3,38.5,56.2,38.1,56.4,37.8
	C56.3,37.8,56.4,37.8,56.4,37.8z"/>
</svg>
