<?xml version="1.0" encoding="utf-8"?>
<!-- Generator: Adobe Illustrator 17.1.0, SVG Export Plug-In . SVG Version: 6.00 Build 0)  -->
<!DOCTYPE svg PUBLIC "-//W3C//DTD SVG 1.1//EN" "http://www.w3.org/Graphics/SVG/1.1/DTD/svg11.dtd">
<svg version="1.1" id="objects" xmlns="http://www.w3.org/2000/svg" xmlns:xlink="http://www.w3.org/1999/xlink" x="0px" y="0px"
	 viewBox="0 0 37.7 37.7" enable-background="new 0 0 37.7 37.7" xml:space="preserve">
<g>
	<g>
		<path fill="#00AFF0" d="M36.1,21.6c0.1-0.9,0.2-1.8,0.2-2.7c0-9.7-7.8-17.5-17.5-17.5c-0.9,0-1.8,0.1-2.7,0.2
			c-1.6-1-3.5-1.6-5.5-1.6C4.7,0,0,4.7,0,10.6c0,2,0.6,3.9,1.6,5.5c-0.1,0.9-0.2,1.8-0.2,2.7c0,9.7,7.8,17.5,17.5,17.5
			c0.9,0,1.8-0.1,2.7-0.2c1.6,1,3.5,1.6,5.5,1.6c5.8,0,10.6-4.7,10.6-10.6C37.7,25.1,37.1,23.2,36.1,21.6L36.1,21.6z M27.1,26.8
			c-0.7,1.1-1.8,1.9-3.2,2.5c-1.4,0.6-3.1,0.9-5,0.9c-2.3,0-4.3-0.4-5.8-1.2c-1.1-0.6-2-1.4-2.6-2.4c-0.7-1-1-2-1-2.9
			c0-0.6,0.2-1,0.6-1.4c0.4-0.4,1-0.6,1.6-0.6c0.5,0,1,0.2,1.3,0.5c0.4,0.3,0.7,0.8,0.9,1.4c0.3,0.7,0.6,1.3,1,1.7
			c0.3,0.5,0.8,0.8,1.4,1.1c0.6,0.3,1.4,0.4,2.4,0.4c1.4,0,2.5-0.3,3.4-0.9c0.9-0.6,1.3-1.3,1.3-2.2c0-0.7-0.2-1.3-0.7-1.7
			c-0.5-0.4-1.1-0.8-1.8-1c-0.7-0.2-1.8-0.5-3-0.8c-1.7-0.4-3.1-0.8-4.3-1.3c-1.1-0.5-2.1-1.2-2.7-2c-0.7-0.9-1-1.9-1-3.2
			c0-1.2,0.4-2.3,1.1-3.2c0.7-0.9,1.8-1.7,3.1-2.2c1.3-0.5,2.9-0.8,4.7-0.8c1.4,0,2.7,0.2,3.8,0.5c1.1,0.3,1.9,0.8,2.6,1.3
			c0.7,0.6,1.2,1.1,1.5,1.8c0.3,0.6,0.5,1.2,0.5,1.8c0,0.5-0.2,1-0.6,1.5C26.2,14.8,25.7,15,25,15c-0.6,0-1-0.1-1.3-0.4
			c-0.3-0.3-0.6-0.7-0.9-1.3c-0.4-0.8-0.9-1.4-1.5-1.9c-0.6-0.4-1.5-0.7-2.8-0.7c-1.2,0-2.2,0.2-2.9,0.7c-0.7,0.5-1.1,1.1-1.1,1.7
			c0,0.4,0.1,0.8,0.4,1.1c0.2,0.3,0.6,0.6,1,0.8c0.4,0.2,0.9,0.4,1.3,0.5c0.5,0.1,1.2,0.3,2.3,0.6c1.3,0.3,2.5,0.6,3.6,1
			c1.1,0.3,2,0.8,2.8,1.3c0.8,0.5,1.4,1.1,1.8,1.9c0.4,0.8,0.6,1.7,0.6,2.8C28.2,24.5,27.9,25.7,27.1,26.8L27.1,26.8z M27.1,26.8"/>
	</g>
</g>
</svg>
