<?xml version="1.0" encoding="utf-8"?>
<!-- Generator: Adobe Illustrator 17.1.0, SVG Export Plug-In . SVG Version: 6.00 Build 0)  -->
<!DOCTYPE svg PUBLIC "-//W3C//DTD SVG 1.1//EN" "http://www.w3.org/Graphics/SVG/1.1/DTD/svg11.dtd">
<svg version="1.1" id="Capa_1" xmlns="http://www.w3.org/2000/svg" xmlns:xlink="http://www.w3.org/1999/xlink" x="0px" y="0px"
	 viewBox="0 0 1000 1000" enable-background="new 0 0 1000 1000" xml:space="preserve">
<g>
	<g>
		<g>
			<path fill="#010002" d="M894.4,857c-39.6,10.4-80.6,15.6-121.6,15.6c-179.3,0-343-98.2-427.3-256.2
				C239.7,417.9,283.4,175.3,451.8,26.5L481.8,0L443,10.1c-38.3,10-75.3,24.4-109.9,42.8C88.4,183.5-4.6,488.7,125.9,733.5
				C213.5,897.9,383.7,1000,570.1,1000c81.9,0,163.5-20.5,236.2-59.2c34.6-18.4,67.1-41.1,96.8-67.3l30-26.6L894.4,857z"/>
		</g>
		<g>
			<path fill="#010002" d="M587.1,572.7l90.7-47.7l90.7,47.7l-17.3-101l73.4-71.6l-101.4-14.8l-45.3-91.9l-45.4,91.9L531,400.1
				l73.4,71.6L587.1,572.7z"/>
		</g>
	</g>
</g>
</svg>
