<?xml version="1.0" encoding="utf-8"?>
<!-- Generator: Adobe Illustrator 17.1.0, SVG Export Plug-In . SVG Version: 6.00 Build 0)  -->
<!DOCTYPE svg PUBLIC "-//W3C//DTD SVG 1.1//EN" "http://www.w3.org/Graphics/SVG/1.1/DTD/svg11.dtd">
<svg version="1.1" id="objects" xmlns="http://www.w3.org/2000/svg" xmlns:xlink="http://www.w3.org/1999/xlink" x="0px" y="0px"
	 viewBox="0 0 36.8 30.8" enable-background="new 0 0 36.8 30.8" xml:space="preserve">
<g id="Het1PX.tif">
	<g>
		<path fill="#40B0EF" d="M36.8,1.9c-0.1,0.9-0.3,1.9-0.5,2.8c-1.7,8-3.4,16-5.1,24c-0.1,0.5-0.2,0.9-0.4,1.3
			c-0.4,0.7-1,0.9-1.8,0.7c-0.5-0.1-0.9-0.3-1.3-0.6c-2.6-1.9-5.1-3.8-7.7-5.7c-0.3-0.2-0.5-0.2-0.8,0.1c-1.3,1.2-2.5,2.5-3.8,3.7
			c-0.5,0.5-1,0.8-1.7,0.7c-0.5,0-0.8-0.2-0.9-0.7c-0.8-2.5-1.6-4.9-2.4-7.4c-0.3-0.8-0.6-1.7-0.8-2.5c-0.1-0.3-0.2-0.5-0.6-0.6
			c-2.5-0.8-5-1.6-7.5-2.3c-0.3-0.1-0.7-0.2-1-0.4c-0.7-0.4-0.8-1-0.1-1.6c0.4-0.4,0.9-0.6,1.5-0.8c3.4-1.3,6.8-2.6,10.2-3.9
			c7.4-2.8,14.7-5.7,22.1-8.5c0.1,0,0.1,0,0.2-0.1C35.7-0.4,36.8,0.4,36.8,1.9z M13.7,26.6c0.1-0.1,0.1-0.2,0.1-0.2
			c0.2-1.8,0.3-3.6,0.5-5.4c0-0.4,0.2-0.8,0.5-1.1c4.8-4.3,9.6-8.6,14.4-12.9c0.3-0.3,0.6-0.5,0.9-0.8c0.1-0.1,0.3-0.2,0.2-0.4
			c-0.1-0.2-0.3-0.2-0.5-0.2c-0.4,0-0.7,0.2-1,0.4C22.9,9.7,17,13.4,11.1,17.1c-0.3,0.2-0.4,0.4-0.3,0.8c0.7,2.2,1.4,4.4,2.2,6.6
			C13.3,25.2,13.5,25.9,13.7,26.6z"/>
	</g>
</g>
</svg>
