<?xml version="1.0" encoding="utf-8"?>
<!-- Generator: Adobe Illustrator 17.1.0, SVG Export Plug-In . SVG Version: 6.00 Build 0)  -->
<!DOCTYPE svg PUBLIC "-//W3C//DTD SVG 1.1//EN" "http://www.w3.org/Graphics/SVG/1.1/DTD/svg11.dtd">
<svg version="1.1" id="objects" xmlns="http://www.w3.org/2000/svg" xmlns:xlink="http://www.w3.org/1999/xlink" x="0px" y="0px"
	 viewBox="0 0 35.4 36.9" enable-background="new 0 0 35.4 36.9" xml:space="preserve">
<g>
	<g>
		<g id="g4780">
			<g id="g15" transform="matrix(1.452588,0,0,1.452588,-115.17955,-97.147891)">
				<path id="path17-6" fill="#7B519D" d="M102,85.4c-0.8-0.6-1.6-1.2-2.4-1.7c-1.6-1.1-3.1-1.2-4.3,0.6c-0.7,1-1.6,1.1-2.6,0.6
					c-2.7-1.2-4.8-3.1-6-5.9c-0.5-1.2-0.5-2.3,0.7-3.2c0.7-0.5,1.4-1,1.3-2c-0.1-1.3-3.2-5.6-4.5-6.1c-0.5-0.2-1-0.2-1.6,0
					c-2.9,1-4.1,3.4-3,6.2c3.5,8.5,9.5,14.4,17.9,18c0.5,0.2,1,0.3,1.3,0.4c1.9,0,4.1-1.8,4.8-3.6C104.3,86.9,103,86.2,102,85.4
					L102,85.4z"/>
				<path id="path19-1" fill="#7B519D" d="M92.6,68.2c6.1,0.9,9,3.9,9.7,10c0.1,0.6-0.1,1.4,0.7,1.4c0.8,0,0.6-0.8,0.7-1.4
					c0.1-5.8-5-11.2-10.9-11.4c-0.4,0.1-1.4-0.3-1.4,0.7C91.3,68.3,92.1,68.1,92.6,68.2L92.6,68.2z"/>
				<path id="path21-2" fill="#7B519D" d="M93.8,69.9c-0.6-0.1-1.4-0.3-1.5,0.5c-0.1,0.9,0.7,0.8,1.3,0.9c3.8,0.8,5.1,2.2,5.7,6
					c0.1,0.5-0.1,1.4,0.8,1.3c0.7-0.1,0.4-0.8,0.5-1.3C100.7,73.6,97.6,70.4,93.8,69.9L93.8,69.9z"/>
				<path id="path23" fill="#7B519D" d="M94.1,72.9c-0.4,0-0.8,0.1-0.9,0.5c-0.2,0.6,0.2,0.8,0.7,0.9c1.6,0.2,2.4,1.2,2.5,2.7
					c0,0.4,0.3,0.8,0.7,0.7c0.6-0.1,0.6-0.6,0.6-1C97.8,74.8,95.8,72.8,94.1,72.9L94.1,72.9z"/>
			</g>
		</g>
	</g>
</g>
</svg>
