<?xml version="1.0" encoding="utf-8"?>
<!-- Generator: Adobe Illustrator 17.1.0, SVG Export Plug-In . SVG Version: 6.00 Build 0)  -->
<!DOCTYPE svg PUBLIC "-//W3C//DTD SVG 1.1//EN" "http://www.w3.org/Graphics/SVG/1.1/DTD/svg11.dtd">
<svg version="1.1" id="Layer_1" xmlns="http://www.w3.org/2000/svg" xmlns:xlink="http://www.w3.org/1999/xlink" x="0px" y="0px"
	 viewBox="184.6 186 630 632" enable-background="new 184.6 186 630 632" xml:space="preserve">
<g id="Padding__x26__Artboard">
</g>
<g id="Icons">
	<g>
		<path fill="#303030" d="M678,467c-6.6,18.2-13.1,36.3-19.8,54.8c10.8,0,21,0,31.8,0c-3.9-18.5-7.6-36.6-11.4-54.7
			C678.4,467,678.2,467,678,467z"/>
		<path fill="#303030" d="M764.5,292.9H234.6c-27.6,0-50.1,22.5-50.1,50.1v314c0,27.6,22.5,50.1,50.1,50.1h529.9
			c27.6,0,50.1-22.5,50.1-50.1V343C814.6,315.3,792.1,292.9,764.5,292.9z M555.8,521.5c-3.9-3.1-8.5-5.6-13-7.9
			c-7.5-3.9-14.9-7.8-21.4-13.3c-18.5-15.6-16.2-37.4-6.1-52c8.3-12.1,20.4-18.4,34.2-21.9c4.4-1.1,9-1.5,13.4-2.3
			c0.7-0.1,1.3-0.3,2-0.5c4.9,0,9.8,0,14.7,0c4.3,0.7,8.6,1.3,12.9,2.2c4.2,0.9,8.3,2.1,12.4,3.3c1,0.3,1.9,0.7,3.1,1.2
			c-2.2,10.3-4.4,20.6-6.6,30.8c-5-1.6-9.8-3.4-14.8-4.6c-8.9-2.2-18-3.1-27-0.7c-3.2,0.9-6.5,2.7-9.1,4.9
			c-4.3,3.8-4.3,9.3-0.2,13.2c2.8,2.7,6.2,4.9,9.5,6.9c6.7,4,13.7,7.4,20.4,11.5c8.9,5.5,16.3,12.6,19.3,23.1
			c4.3,15.3-0.4,35.6-17.4,47.9c-9.8,7.1-20.8,10.8-32.6,12.3c-18.5,2.4-36.7,0.6-54.4-5.5c-1-0.3-1.9-0.8-3.2-1.3
			c2.3-10.7,4.6-21.4,6.9-32.3c1.5,0.6,2.8,1.2,4,1.8c10.9,5.2,22.5,7.7,34.6,7.5c5.5-0.1,11-0.9,16-3.6
			C562.7,537.3,563.9,527.9,555.8,521.5z M494.2,440.6c-9.3,43.3-18.5,86.7-27.7,130c-0.6,2.8-1.6,3.6-4.4,3.5
			c-10.4-0.2-20.9-0.1-31.3-0.1c-1,0-1.9,0-3.3,0c10.6-49.5,21.1-98.7,31.6-147.8c12.8,0,25.3,0,38.1,0
			C496.2,431.2,495.2,435.9,494.2,440.6z M440.5,431.4c-19.6,46.8-39.2,93.6-58.7,140.3c-0.7,1.8-1.6,2.5-3.6,2.4
			c-11.8-0.1-23.7-0.1-35.5,0c-1.8,0-2.5-0.4-3-2.3c-9.9-38.5-19.9-77-29.7-115.5c-1.8-6.9-5.2-11.7-11.8-14.6
			c-10.9-4.8-22.1-8.2-33.7-10.9c-0.5-0.1-1-0.3-1.5-0.5c0-0.4,0-0.7,0-1.1c0.4-2.9,2.2-3.2,4.7-3.2c20.1,0.1,40.1,0.1,60.2,0.1
			c10,0,16.8,5.6,18.7,15.4c5.1,27.1,10.2,54.2,15.3,81.4c0.2,0.9,0.4,1.9,1.2,3c13.1-33.2,26.3-66.4,39.4-99.6c13.3,0,26.5,0,40,0
			C441.8,428.2,441.2,429.8,440.5,431.4z M700.9,574c-1.1-5.3-2.3-10.5-3.3-15.8c-1.3-6.2-1.2-6.2-7.6-6.2c-13.4,0-26.8,0-40.2,0
			c-1.9,0-2.8,0.5-3.4,2.3c-2,6-4.2,11.9-6.4,17.8c-0.3,0.8-1.4,1.9-2.2,1.9c-12.7,0.1-25.4,0.1-38.4,0.1c0.3-0.9,0.5-1.7,0.8-2.4
			c18.7-44.7,37.4-89.3,56-134c3.2-7.6,9-11.5,17.2-11.5c10.5,0,21,0,31.9,0c10.3,49.2,20.5,98.3,30.8,147.8
			C724.2,574,712.7,574,700.9,574z"/>
	</g>
</g>
</svg>
