<?xml version="1.0" encoding="utf-8"?>
<!-- Generator: Adobe Illustrator 17.1.0, SVG Export Plug-In . SVG Version: 6.00 Build 0)  -->
<!DOCTYPE svg PUBLIC "-//W3C//DTD SVG 1.1//EN" "http://www.w3.org/Graphics/SVG/1.1/DTD/svg11.dtd">
<svg version="1.1" id="Capa_1" xmlns="http://www.w3.org/2000/svg" xmlns:xlink="http://www.w3.org/1999/xlink" x="0px" y="0px"
	 viewBox="0 0 31.8 31.8" enable-background="new 0 0 31.8 31.8" xml:space="preserve">
<g>
	<g>
		<path d="M31.8,20.3c0-0.5-0.3-0.9-0.7-1.1v-7.4c0.1,0,0.1-0.1,0.1-0.2c0-0.1-0.1-0.2-0.1-0.2L15.9,6.1c-0.2-0.1-0.4-0.1-0.6,0
			L0.2,11.5c-0.1,0-0.1,0.1-0.2,0.2s0.1,0.2,0.1,0.2l15.1,5.9c0.2,0.1,0.4,0.1,0.7,0L30,12.3v6.9c-0.4,0.2-0.7,0.6-0.7,1.1
			c0,0.5,0.3,0.9,0.7,1.1c-0.4,0.8-0.7,2.6-0.7,3.1c0,0.7,0.5,1.2,1.2,1.2c0.7,0,1.2-0.5,1.2-1.2c0-0.5-0.3-2.2-0.7-3.1
			C31.5,21.2,31.8,20.8,31.8,20.3z"/>
		<path d="M4.9,14.9c0,1.7,0,3.7,0,4c0,3.2,4.8,5.7,10.7,5.9c6-0.2,10.7-2.7,10.7-5.9c0-0.3,0-2.3,0-4l-10.4,4.1
			c-0.2,0.1-0.4,0.1-0.7,0L4.9,14.9z"/>
	</g>
</g>
</svg>
