<?xml version="1.0" encoding="utf-8"?>
<!-- Generator: Adobe Illustrator 17.1.0, SVG Export Plug-In . SVG Version: 6.00 Build 0)  -->
<!DOCTYPE svg PUBLIC "-//W3C//DTD SVG 1.1//EN" "http://www.w3.org/Graphics/SVG/1.1/DTD/svg11.dtd">
<svg version="1.1" id="Capa_1" xmlns="http://www.w3.org/2000/svg" xmlns:xlink="http://www.w3.org/1999/xlink" x="0px" y="0px"
	 viewBox="0 0 1000 1000" enable-background="new 0 0 1000 1000" xml:space="preserve">
<g>
	<g>
		<g>
			<g>
				<path d="M801.8,381c0-65.8-53.3-119.1-119.1-119.1S563.6,315.2,563.6,381s53.3,119.1,119.1,119.1S801.8,446.8,801.8,381z
					 M676.2,462.4c-3.3,0-4.9-1.8-4.9-5.1c0-2.7,0-5.1,0-7.8c0-5.7-0.2-5.9-5.7-6.8c-7-1-13.7-2.7-20.3-5.7c-4.9-2.5-5.5-3.7-4.1-9
					c1-3.9,2-7.8,3.3-11.7c1.4-4.5,2.7-5.1,6.8-2.9c7,3.7,14.6,5.7,22.3,6.8c5.1,0.6,10,0.2,14.8-1.8c8.8-3.9,10-13.9,2.7-20.1
					c-2.5-2-5.3-3.7-8.4-4.9c-7.6-3.3-15.8-5.9-23-10.2c-11.7-7-19.3-16.8-18.4-30.9c1-16.2,10-26.2,25-31.8c6.1-2.3,6.1-2,6.1-8.6
					c0-2.3,0-4.3,0-6.6c0.2-4.9,1-5.7,5.7-5.7c1.4,0,3.1,0,4.5,0c10.2,0,10.2,0,10.2,10.2c0,7.2,0,7.2,7.2,8.4
					c5.5,0.8,10.9,2.5,16,4.7c2.9,1.2,3.9,3.3,3.1,6.1c-1.2,4.5-2.5,8.8-3.9,13.3c-1.4,4.1-2.7,4.7-6.6,2.9
					c-8-3.9-16.4-5.5-25.2-4.9c-2.3,0.2-4.5,0.4-6.8,1.4c-7.6,3.3-8.8,11.7-2.5,17c3.3,2.7,7,4.5,10.9,6.1c6.8,2.9,13.5,5.5,19.9,9
					c20.5,11.3,26,36.9,11.5,54.5c-5.1,6.4-11.9,10.7-19.9,12.7c-3.5,1-4.9,2.7-4.9,6.4c0.2,3.5,0,7,0,10.5c0,3.1-1.6,4.9-4.7,4.9
					C683.7,462.6,679.9,462.6,676.2,462.4z"/>
			</g>
		</g>
		<g>
			<circle cx="509.5" cy="387" r="33"/>
		</g>
		<g>
			<circle cx="856.1" cy="387" r="33"/>
		</g>
		<g>
			<path d="M945.9,186.7H427.1c-29.9,0-54.3,24.4-54.3,54.3v181.2c8-0.4,16-0.6,24.2-0.6c7.6,0,15,0.2,22.3,0.6V299.9
				c4.3,1,8.8,1.6,13.5,1.6c30.3,0,55.1-24.6,55.1-55.1c0-4.7-0.6-9.2-1.6-13.5h404c-0.6,3.3-1,6.8-1,10c0,30.3,24.6,55.1,55.1,55.1
				c3.3,0,6.6-0.4,9.6-0.8v167c-3.1-0.6-6.4-0.8-9.6-0.8c-30.3,0-55.1,24.6-55.1,55.1c0,3.5,0.4,6.8,1,10H600.7c0,1.2,0,2.5,0,3.7
				c0,0.6,0,1,0,1.6v41.2h344.9c29.9,0,54.3-24.4,54.3-54.3V241C1000.2,211.1,975.8,186.7,945.9,186.7z"/>
		</g>
		<g>
			<g>
				<path d="M55.3,452.1c29.9,11.3,69.5,17.4,111.3,17.4c22.1,0,43.7-1.8,63.3-5.1c10.9-8.2,24.8-16,42.6-22.5
					c17.8-6.6,38.5-11.7,60.7-15v-29.7c0-0.4,0-0.8,0-1.2l0,0c0-0.2,0-0.6,0-0.8v-69.7c0-0.4,0-0.8,0-1.2l0,0c0-0.2,0-0.6,0-0.8
					v-69.7c0-0.4,0-0.8,0-1.2c0-16.2-9.6-39.1-55.3-56.4c-29.9-11.5-69.5-17.6-111.3-17.6s-81.4,6.1-111.3,17.4
					C9.6,213,0,235.9,0,252.3v70.9c0,0.2,0,0.6,0,0.8l0,0V395c0,0.2,0,0.6,0,0.8l0,0v0.8v70.1v0.8c0,0.2,0,0.6,0,0.8l0,0v70.9
					c0,0.2,0,0.6,0,0.8l0,0V611c0,16.2,9.6,39.1,55.3,56.4c29.9,11.3,69.5,17.4,111.3,17.4c9,0,17.8-0.2,26.6-0.8v-7v-0.8
					c0-0.2,0-0.2,0-0.4c0-0.2,0-0.4,0-0.4v-28.1c-8.6,0.6-17.6,1-26.6,1c-37.5,0-72.6-5.3-98.4-15c-25.6-9.6-31.6-19.3-31.6-21.7
					v-23.2c5.3,2.9,11.7,5.5,18.7,8.2c29.9,11.3,69.5,17.4,111.3,17.4c9,0,17.8-0.2,26.6-0.8v-8.8c0-0.2,0-0.2,0-0.4s0-0.4,0-0.4
					v-28.1c-8.6,0.6-17.6,1-26.6,1c-37.5,0-72.6-5.3-98.4-15c-25.6-9.6-31.6-19.3-31.6-21.7v-23c5.3,2.9,11.7,5.5,18.7,8.2
					c29.9,11.3,69.5,17.4,111.3,17.4c9,0,17.8-0.2,26.6-0.8v-8.8c0-8.2,1.2-18.9,6.1-30.3c-10.7,1-21.5,1.4-32.8,1.4
					c-37.5,0-72.6-5.3-98.4-15c-25.6-9.6-31.6-19.3-31.6-21.7v-23C42.2,446.6,48.4,449.5,55.3,452.1z M68.3,230.4
					c26-9.6,61.1-15,98.4-15c37.5,0,72.6,5.3,98.4,15c24.8,9.2,30.9,18.4,31.4,21.5v0.6c-0.4,3.1-6.6,12.3-31.4,21.5
					c-26,9.6-61.1,15-98.4,15c-37.5,0-72.6-5.3-98.4-15c-25.6-9.6-31.6-19.3-31.6-21.7C36.7,249.8,42.6,239.8,68.3,230.4z
					 M36.7,300.1c5.3,2.9,11.7,5.5,18.7,8.2c29.9,11.3,69.5,17.4,111.3,17.4s81.4-6.1,111.3-17.4c7-2.7,13.1-5.3,18.7-8.2v23l0,0
					l0,0v0.2c-0.4,3.1-6.6,12.3-31.4,21.5c-26,9.6-61.1,15-98.4,15c-37.5,0-72.6-5.3-98.4-15c-25.6-9.6-31.6-19.3-31.6-21.7v-23
					H36.7z M36.7,372c5.3,2.9,11.7,5.5,18.7,8.2c29.9,11.3,69.5,17.4,111.3,17.4s81.4-6.1,111.3-17.4c7-2.7,13.1-5.3,18.7-8.2v23
					l0,0l0,0v0.2c-0.4,3.1-6.6,12.3-31.4,21.5c-26,9.6-61.1,15-98.4,15c-37.5,0-72.6-5.3-98.4-15C42.8,407,36.9,397.4,36.9,395v-23
					H36.7z"/>
			</g>
		</g>
		<g>
			<g>
				<path d="M508.1,476.1c-29.9-11.3-69.5-17.4-111.3-17.4s-81.4,6.1-111.3,17.4c-45.7,17-55.3,40-55.3,56.4v70.9c0,0.2,0,0.6,0,0.8
					l0,0v70.9c0,0.2,0,0.6,0,0.8l0,0v0.8v70.1v0.8c0,16.2,9.6,39.1,55.3,56.4c29.9,11.3,69.5,17.4,111.3,17.4s81.4-6.1,111.3-17.4
					c45.7-17,55.3-40,55.3-56.4v-0.8l0,0v-69.7c0-0.4,0-0.8,0-1.2l0,0c0-0.2,0-0.6,0-0.8v-69.7c0-0.4,0-0.8,0-1.2l0,0
					c0-0.2,0-0.6,0-0.8v-69.7c0-0.4,0-0.8,0-1.2C563.6,516.3,554,493.3,508.1,476.1z M298.4,510.8c26-9.6,61.1-15,98.4-15
					c37.5,0,72.6,5.3,98.4,15c24.8,9.2,31.2,18.4,31.4,21.5v0.6c-0.4,3.1-6.6,12.3-31.4,21.5c-26,9.6-61.1,15-98.4,15
					c-37.5,0-72.6-5.3-98.4-15c-25.6-9.6-31.6-19.3-31.6-21.7S272.6,520.2,298.4,510.8z M495.4,769c-26,9.6-61.1,15-98.4,15
					c-37.5,0-72.6-5.3-98.4-15c-25.6-9.6-31.6-19.3-31.6-21.7v-23c5.3,2.9,11.7,5.5,18.7,8.2c29.9,11.3,69.5,17.4,111.3,17.4
					s81.4-6.1,111.3-17.4c7-2.7,13.1-5.3,18.7-8.2v23C526.7,749.7,521,759.4,495.4,769z M526.7,675.3L526.7,675.3v0.2
					c-0.4,3.1-6.6,12.3-31.4,21.5c-26,9.6-61.1,15-98.4,15c-37.5,0-72.6-5.3-98.4-15c-25.6-9.6-31.6-19.3-31.6-21.7v-23
					c5.3,2.9,11.7,5.5,18.7,8.2C315.6,671.9,355.2,678,397,678s81.4-6.1,111.3-17.4c7-2.7,13.1-5.3,18.7-8.2L526.7,675.3
					L526.7,675.3z M526.7,603.4L526.7,603.4v0.2c-0.4,3.1-6.6,12.3-31.4,21.5c-26,9.6-61.1,15-98.4,15c-37.5,0-72.6-5.3-98.4-15
					c-25.6-9.6-31.6-19.3-31.6-21.7v-23c5.3,2.9,11.7,5.5,18.7,8.2c29.9,11.3,69.5,17.4,111.3,17.4s81.4-6.1,111.3-17.4
					c7-2.7,13.1-5.3,18.7-8.2L526.7,603.4L526.7,603.4z"/>
			</g>
		</g>
	</g>
</g>
</svg>
