<?xml version="1.0" encoding="utf-8"?>
<!-- Generator: Adobe Illustrator 17.1.0, SVG Export Plug-In . SVG Version: 6.00 Build 0)  -->
<!DOCTYPE svg PUBLIC "-//W3C//DTD SVG 1.1//EN" "http://www.w3.org/Graphics/SVG/1.1/DTD/svg11.dtd">
<svg version="1.1" id="Layer_1" xmlns="http://www.w3.org/2000/svg" xmlns:xlink="http://www.w3.org/1999/xlink" x="0px" y="0px"
	 viewBox="0 0 1000 1000" enable-background="new 0 0 1000 1000" xml:space="preserve">
<g>
	<path d="M984,47.9H16c-8.8,0-16,7.1-16,16v872.3c0,8.8,7.1,16,16,16H984c8.8,0,16-7.1,16-16V766c0-8.8-7.1-16-16-16s-16,7.1-16,16
		v154.3H31.9V207.4h936.2v494.7c0,8.8,7.1,16,16,16s16-7.1,16-16V63.8C1000,55,992.9,47.9,984,47.9z M31.9,79.8h590.4v95.7H31.9
		V79.8z M654.3,175.5V79.8h313.8v95.7H654.3z"/>
	<path d="M811.7,110.6c-9.4,0-17,7.6-17,17s7.6,17,17,17s17-7.6,17-17S821.1,110.6,811.7,110.6z"/>
	<path d="M724.5,110.6c-9.4,0-17,7.6-17,17s7.6,17,17,17s17-7.6,17-17S733.9,110.6,724.5,110.6z"/>
	<path d="M898.9,110.6c-9.4,0-17,7.6-17,17s7.6,17,17,17s17-7.6,17-17S908.3,110.6,898.9,110.6z"/>
	<path d="M316.4,480.8c6.3-0.8,11.5-5.2,13.3-11.3L366.4,347c2.5-8.4-2.3-17.3-10.7-19.9c-8.4-2.5-17.3,2.3-19.9,10.7l-26.3,87.9
		l-25.4-42.4c-2.9-4.8-8.1-7.8-13.7-7.8c-5.6,0-10.8,2.9-13.7,7.8l-25.4,42.4l-26.3-87.9c-2.5-8.4-11.4-13.2-19.9-10.7
		c-8.4,2.5-13.2,11.4-10.7,19.9l36.7,122.5c1.8,6.1,7,10.5,13.3,11.3c0.7,0.1,1.3,0.1,2,0.1c5.6,0,10.8-2.9,13.7-7.8l30.3-50.5
		l30.3,50.5C304,478.6,310.1,481.6,316.4,480.8L316.4,480.8z"/>
	<path d="M439.1,480.8c0.7,0.1,1.3,0.1,2,0.1c5.6,0,10.8-2.9,13.7-7.8l30.3-50.5l30.3,50.5c3.2,5.4,9.4,8.4,15.7,7.6
		c6.3-0.8,11.5-5.2,13.3-11.3L581,347c2.5-8.4-2.3-17.3-10.7-19.9c-8.4-2.5-17.3,2.3-19.9,10.7l-26.3,87.9l-25.4-42.4
		c-2.9-4.8-8.1-7.8-13.7-7.8s-10.8,2.9-13.7,7.8l-25.4,42.4l-26.3-87.9c-2.5-8.4-11.4-13.2-19.9-10.7c-8.4,2.5-13.2,11.4-10.7,19.9
		l36.7,122.5C427.6,475.6,432.8,480,439.1,480.8z"/>
	<path d="M784.8,327.1c-8.4-2.5-17.3,2.3-19.9,10.7l-26.3,87.9l-25.4-42.4c-2.9-4.8-8.1-7.8-13.7-7.8c-5.6,0-10.8,2.9-13.7,7.8
		l-25.4,42.4l-26.3-87.9c-2.5-8.4-11.4-13.2-19.9-10.7c-8.4,2.5-13.2,11.4-10.7,19.9l36.7,122.5c1.8,6.1,7,10.5,13.3,11.3
		c6.3,0.8,12.4-2.2,15.7-7.6l30.3-50.5l30.3,50.5c2.9,4.8,8.1,7.8,13.7,7.8c0.7,0,1.3,0,2-0.1c6.3-0.8,11.5-5.2,13.3-11.3L795.5,347
		C798.1,338.6,793.3,329.7,784.8,327.1z"/>
	<path d="M290.9,571.4c0-8.8-7.1-16-16-16h-85.1c-8.8,0-16,7.1-16,16v85.1c0,8.8,7.1,16,16,16h85.1c8.8,0,16-7.1,16-16V571.4z
		 M258.9,640.5h-53.2v-53.2h53.2V640.5z"/>
	<path d="M274.9,704.4h-85.1c-8.8,0-16,7.1-16,16v85.1c0,8.8,7.1,16,16,16h85.1c8.8,0,16-7.1,16-16v-85.1
		C290.9,711.5,283.7,704.4,274.9,704.4z M258.9,789.5h-53.2v-53.2h53.2V789.5z"/>
	<path d="M780.2,598h-63.8c-8.8,0-16,7.1-16,16c0,8.8,7.1,16,16,16h63.8c8.8,0,16-7.1,16-16C796.2,605.1,789.1,598,780.2,598z"/>
	<path d="M652.6,598H338.7c-8.8,0-16,7.1-16,16c0,8.8,7.1,16,16,16h313.9c8.8,0,16-7.1,16-16C668.5,605.1,661.4,598,652.6,598z"/>
	<path d="M780.2,746.9h-63.8c-8.8,0-16,7.1-16,16c0,8.8,7.1,16,16,16h63.8c8.8,0,16-7.1,16-16C796.2,754.1,789.1,746.9,780.2,746.9z
		"/>
	<path d="M652.6,746.9H338.7c-8.8,0-16,7.1-16,16c0,8.8,7.1,16,16,16h313.9c8.8,0,16-7.1,16-16C668.5,754.1,661.4,746.9,652.6,746.9
		z"/>
</g>
</svg>
