<?xml version="1.0" encoding="utf-8"?>
<!-- Generator: Adobe Illustrator 17.1.0, SVG Export Plug-In . SVG Version: 6.00 Build 0)  -->
<!DOCTYPE svg PUBLIC "-//W3C//DTD SVG 1.1//EN" "http://www.w3.org/Graphics/SVG/1.1/DTD/svg11.dtd">
<svg version="1.1" id="Capa_1" xmlns="http://www.w3.org/2000/svg" xmlns:xlink="http://www.w3.org/1999/xlink" x="0px" y="0px"
	 viewBox="0 0 36 36" enable-background="new 0 0 36 36" xml:space="preserve">
<g>
	<path d="M18.1,7.9c-0.1,0-0.2,0-0.2,0L18.1,7.9C18.1,7.9,18.1,7.9,18.1,7.9z M28,11.9c0.1,0,0.1,0,0.2,0c0,0,0,0,0.1,0H28z
		 M13.4,15.9C13.4,15.9,13.4,15.9,13.4,15.9c0.8,2.6,2.6,4.6,4.6,4.6c1.7-0.1,3.9-2,4.6-4.6c0.3,0,0.7-0.4,0.7-0.9
		c0.1-0.6-0.1-1.1-0.4-1.1c0,0,0,0-0.1,0c-0.1-4.3-2.2-5.9-4.8-5.9c-2.7,0-5.1,1.9-4.9,5.9c0,0,0,0-0.1,0c-0.3,0.1-0.5,0.6-0.4,1.1
		C12.7,15.5,13.1,15.9,13.4,15.9z M17.9,20.5L17.9,20.5C18,20.5,18,20.5,17.9,20.5C18,20.5,18,20.5,17.9,20.5z M24.8,17.7
		C24.9,17.6,24.9,17.6,24.8,17.7c0.5,1.9,1.9,3.3,3.3,3.3c1.3-0.1,2.8-1.5,3.3-3.3c0.2,0,0.5-0.3,0.5-0.7c0.1-0.4-0.1-0.8-0.3-0.8
		c0,0,0,0,0,0c-0.1-3.1-1.6-4.2-3.4-4.3c-1.9,0-3.7,1.4-3.6,4.3c0,0,0,0-0.1,0c-0.2,0-0.4,0.4-0.3,0.8
		C24.3,17.4,24.6,17.7,24.8,17.7z M28.2,21C28.2,21,28.1,21,28.2,21C28.1,21,28.1,21,28.2,21L28.2,21z M21.6,21.3L19.2,26l-0.4-3.1
		l0.6-0.5h-1.5h-1.3l0.6,0.5L16.8,26l-2.4-4.8c-4.2,0.6-7.3,2.4-7.3,6.8h21.7C28.9,23.7,25.8,21.8,21.6,21.3z M7.7,11.9
		c0.1,0,0.1,0,0.2,0c0,0,0,0,0.1,0H7.7z M8.4,22.7l0.4-0.4h-1h-1l0.4,0.4L7,25l-1.8-3.4c-3,0.4-5.2,1.7-5.2,4.9h7
		c0.2-1.2,0.7-2.2,1.5-3L8.4,22.7z M30.7,21.5L29,25l-0.3-2.2l0.4-0.4h-1h-1l0.4,0.4l-0.1,0.7c0.8,0.8,1.3,1.8,1.5,3h7
		C36,23.3,33.8,21.9,30.7,21.5z M7.9,21C7.9,21,7.8,21,7.9,21C7.8,21,7.8,21,7.9,21L7.9,21z M4.5,17.7C4.6,17.6,4.6,17.6,4.5,17.7
		C5.1,19.5,6.5,21,7.8,21c1.3-0.1,2.8-1.5,3.3-3.3c0.2,0,0.5-0.3,0.5-0.7c0.1-0.4-0.1-0.8-0.3-0.8c0,0,0,0,0,0
		c-0.1-3.1-1.6-4.2-3.4-4.3c-1.9,0-3.7,1.4-3.6,4.3c0,0,0,0-0.1,0c-0.2,0-0.4,0.4-0.3,0.8C4,17.4,4.3,17.7,4.5,17.7z"/>
</g>
</svg>
