<?xml version="1.0" encoding="utf-8"?>
<!-- Generator: Adobe Illustrator 17.1.0, SVG Export Plug-In . SVG Version: 6.00 Build 0)  -->
<!DOCTYPE svg PUBLIC "-//W3C//DTD SVG 1.1//EN" "http://www.w3.org/Graphics/SVG/1.1/DTD/svg11.dtd">
<svg version="1.1" id="Capa_1" xmlns="http://www.w3.org/2000/svg" xmlns:xlink="http://www.w3.org/1999/xlink" x="0px" y="0px"
	 viewBox="0 0 1000 1000" enable-background="new 0 0 1000 1000" xml:space="preserve">
<g>
	<path d="M736.4,32.5c-28-14.3-62.3-3.1-76.6,25L236.1,890.9c-14.3,28-3.1,62.3,25,76.6c8.3,4.2,17.1,6.2,25.8,6.2
		c20.8,0,40.8-11.4,50.8-31.2l423.7-833.4C775.6,81.1,764.4,46.8,736.4,32.5z"/>
	<path d="M432.1,307c0-119.1-96.9-216.1-216.1-216.1C96.9,90.9,0,187.8,0,307C0,426.1,96.9,523,216.1,523
		C335.2,523,432.1,426.1,432.1,307z M216.1,409.1c-56.3,0-102.1-45.8-102.1-102.1c0-56.3,45.8-102.1,102.1-102.1
		c56.3,0,102.1,45.8,102.1,102.1C318.2,363.3,272.4,409.1,216.1,409.1z"/>
	<path d="M783.9,477c-119.1,0-216.1,96.9-216.1,216.1s96.9,216.1,216.1,216.1c119.1,0,216.1-96.9,216.1-216.1S903.1,477,783.9,477z
		 M783.9,795.2c-56.3,0-102.1-45.8-102.1-102.1c0-56.3,45.8-102.1,102.1-102.1c56.3,0,102.1,45.8,102.1,102.1
		C886.1,749.4,840.2,795.2,783.9,795.2z"/>
</g>
</svg>
