<?xml version="1.0" encoding="utf-8"?>
<!-- Generator: Adobe Illustrator 17.1.0, SVG Export Plug-In . SVG Version: 6.00 Build 0)  -->
<!DOCTYPE svg PUBLIC "-//W3C//DTD SVG 1.1//EN" "http://www.w3.org/Graphics/SVG/1.1/DTD/svg11.dtd">
<svg version="1.1" id="Layer_1" xmlns="http://www.w3.org/2000/svg" xmlns:xlink="http://www.w3.org/1999/xlink" x="0px" y="0px"
	 viewBox="0 0 1000 1000" enable-background="new 0 0 1000 1000" xml:space="preserve">
<g>
	<path d="M165.8,301.9h406.6c16.1,0,29.1-13,29.1-29.1c0-16.1-13-29.1-29.1-29.1H165.8c-16.1,0-29.1,13-29.1,29.1
		C136.6,288.8,149.7,301.9,165.8,301.9z"/>
	<path d="M165.8,402h406.6c16.1,0,29.1-13,29.1-29.1c0-16.1-13-29.1-29.1-29.1H165.8c-16.1,0-29.1,13-29.1,29.1
		C136.6,388.9,149.7,402,165.8,402z"/>
	<path d="M380.9,744.2H165.8c-16.1,0-29.1,13-29.1,29.1c0,16.1,13,29.1,29.1,29.1h215.1c16.1,0,29.1-13,29.1-29.1
		C410,757.3,397,744.2,380.9,744.2z"/>
	<path d="M985.8,87.1l-85.7-51.4c-6.6-4-14.6-5.2-22.1-3.3c-7.5,1.9-13.9,6.7-17.9,13.3L711,294.3V118.1c0-16.1-13-29.1-29.1-29.1
		H29.1C13,88.9,0,102,0,118.1v821.3c0,16.1,13,29.1,29.1,29.1h652.7c16.1,0,29.1-13,29.1-29.1V601.8l284.9-474.8
		C1004.1,113.3,999.7,95.4,985.8,87.1L985.8,87.1z M609.4,657.8l-48.4,40.2l12.7-61.6l279.6-466l35.7,21.4L609.4,657.8L609.4,657.8z
		 M919,141.8l-35.7-21.4l11.8-19.7l35.7,21.4L919,141.8z M58.3,910.2v-763h594.4v244.2l-51.5,85.8c0.2-1.4,0.3-2.8,0.3-4.3
		c0-16.1-13-29.1-29.1-29.1H165.8c-16.1,0-29.1,13-29.1,29.1s13,29.1,29.1,29.1h406.6c6.5,0,12.5-2.1,17.3-5.7L561.2,544H165.8
		c-16.1,0-29.1,13-29.1,29.1c0,16.1,13,29.1,29.1,29.1h360.4l-5,8.4c-1.7,2.8-2.9,5.9-3.6,9.1l-5,24.4H165.8
		c-16.1,0-29.1,13-29.1,29.1s13,29.1,29.1,29.1h334.8l-13.4,65.1c-2.5,12.1,2.9,24.5,13.6,30.9c4.6,2.8,9.8,4.2,15,4.2
		c6.6,0,13.3-2.3,18.6-6.7l116.1-96.4c0.8-0.7,1.5-1.4,2.2-2.2v212.9L58.3,910.2L58.3,910.2z"/>
</g>
</svg>
