<?xml version="1.0" encoding="utf-8"?>
<!-- Generator: Adobe Illustrator 17.1.0, SVG Export Plug-In . SVG Version: 6.00 Build 0)  -->
<!DOCTYPE svg PUBLIC "-//W3C//DTD SVG 1.1//EN" "http://www.w3.org/Graphics/SVG/1.1/DTD/svg11.dtd">
<svg version="1.1" id="Layer_1" xmlns="http://www.w3.org/2000/svg" xmlns:xlink="http://www.w3.org/1999/xlink" x="0px" y="0px"
	 viewBox="299.8 0 400.4 553.8" enable-background="new 299.8 0 400.4 553.8" xml:space="preserve">
<g>
	<path d="M500,240.4c65.6,0,119-53.4,119-119s-53.4-119-119-119s-119,53.4-119,119S434.4,240.4,500,240.4z"/>
	<path d="M525,278.9c-2.6-2.9-6.5-4.3-10.4-4.3h-29.2c-3.9,0-7.8,1.5-10.4,4.3c-4.1,4.5-4.7,10.9-1.8,16l15.6,23.5l-7.3,61.6
		l14.4,38.3c1.4,3.8,6.8,3.8,8.2,0l14.4-38.3l-7.3-61.6l15.6-23.5C529.7,289.8,529.1,283.3,525,278.9L525,278.9z"/>
	<path d="M316.7,553.8h366.5c9.3,0,17-7.6,17-17V384.1c0-44.5-28.8-84-71.8-98.3L595,275.5c-6.1-1.9-12.6,1.4-14.8,7.4L500,502.8
		l-80.1-219.9c-1.8-4.9-6.4-7.9-11.3-7.9c-1.2,0-2.4,0.2-3.5,0.5l-33.2,10.2c-43.2,14.4-72,53.9-72,98.4v152.7
		C299.8,546.2,307.4,553.8,316.7,553.8L316.7,553.8z"/>
</g>
</svg>
