<?xml version="1.0" encoding="utf-8"?>
<!-- Generator: Adobe Illustrator 17.1.0, SVG Export Plug-In . SVG Version: 6.00 Build 0)  -->
<!DOCTYPE svg PUBLIC "-//W3C//DTD SVG 1.1//EN" "http://www.w3.org/Graphics/SVG/1.1/DTD/svg11.dtd">
<svg version="1.1" id="Capa_1" xmlns="http://www.w3.org/2000/svg" xmlns:xlink="http://www.w3.org/1999/xlink" x="0px" y="0px"
	 viewBox="0 0 1000 1000" enable-background="new 0 0 1000 1000" xml:space="preserve">
<g>
	<g>
		<path d="M67.8,744.5v162.1c0,9.9,8,18.1,18.1,18.1h125.3c9.9,0,18.1-8,18.1-18.1V621.4l-91,91C119,731.5,94.3,742.6,67.8,744.5z"
			/>
		<path d="M291.7,619.4v287.2c0,9.9,8,18.1,18.1,18.1h125.3c9.9,0,18.1-8,18.1-18.1V737.5c-28.6-0.6-55.3-11.9-75.4-32L291.7,619.4z
			"/>
		<path d="M515.7,719.6v187c0,9.9,8,18.1,18.1,18.1h125.3c9.9,0,18.1-8,18.1-18.1V561.6L533.5,705.2
			C528,710.8,522,715.5,515.7,719.6z"/>
		<path d="M889,349.6L739.6,499v407.6c0,9.9,8,18.1,18.1,18.1H883c9.9,0,18.1-8,18.1-18.1V360.9c-4.1-3.5-7.2-6.6-9.5-8.6L889,349.6
			z"/>
		<path d="M991.5,85c-6-6.4-15-9.7-26.5-9.7c-1,0-2.3,0-3.3,0c-58.3,2.7-116.5,5.5-174.8,8.2c-7.8,0.4-18.5,0.8-26.9,9.2
			c-2.7,2.7-4.7,5.8-6.4,9.5c-8.6,18.7,3.5,30.8,9.2,36.6l14.6,14.8c10.1,10.3,20.3,20.5,30.6,30.6L455.5,537L297.1,378.6
			c-9.5-9.5-22.2-14.8-35.7-14.8c-13.6,0-26.1,5.3-35.5,14.8l-211,210.8c-19.7,19.7-19.7,51.6,0,71.3l9.5,9.5
			c9.5,9.5,22.2,14.8,35.7,14.8s26.1-5.3,35.5-14.8l165.8-165.8l158.4,158.4c9.5,9.5,22.2,14.8,35.7,14.8s26.1-5.3,35.7-14.8
			L889,265l45,44.8c5.3,5.3,12.7,12.7,24,12.7c4.7,0,9.5-1.2,14.4-3.9c3.3-1.8,6.2-3.9,8.6-6.4c8.8-8.8,10.5-20.1,10.9-29
			c1.6-37.8,3.5-75.6,5.3-113.6l2.7-56.9C1000.5,100.8,997.9,91.6,991.5,85z"/>
	</g>
</g>
</svg>
