<?xml version="1.0" encoding="utf-8"?>
<!-- Generator: Adobe Illustrator 17.1.0, SVG Export Plug-In . SVG Version: 6.00 Build 0)  -->
<!DOCTYPE svg PUBLIC "-//W3C//DTD SVG 1.1//EN" "http://www.w3.org/Graphics/SVG/1.1/DTD/svg11.dtd">
<svg version="1.1" id="Capa_1" xmlns="http://www.w3.org/2000/svg" xmlns:xlink="http://www.w3.org/1999/xlink" x="0px" y="0px"
	 viewBox="2.2 0 89.5 73.2" enable-background="new 2.2 0 89.5 73.2" xml:space="preserve">
<g>
	<g>
		<path d="M2.2,0v73.2h89.5V0H2.2z M85.8,67.4H8V5.8h77.8V67.4z"/>
		<path d="M27.6,34.4L17.2,45.3v18.3c0,0.5,0.4,0.9,0.9,0.9h12.7c0.5,0,0.9-0.4,0.9-0.9V35.5l-2.9-1.1H27.6z"/>
		<path d="M53.5,42.9H40.8c-0.5,0-0.9,0.4-0.9,0.9v19.8c0,0.5,0.4,0.9,0.9,0.9h12.7c0.5,0,0.9-0.4,0.9-0.9V43.8
			C54.4,43.3,54,42.9,53.5,42.9z"/>
		<path d="M71.9,22.8l-2.3-1.9L61.2,30v33.7c0,0.5,0.4,0.9,0.9,0.9h12.7c0.5,0,0.9-0.4,0.9-0.9V23.1c-0.1,0-0.1,0.1-0.2,0.1
			c-0.5,0.3-1,0.4-1.6,0.4C73.3,23.6,72.5,23.3,71.9,22.8z"/>
		<path d="M14.1,43.9c0.5,0,1-0.2,1.4-0.6l11.9-12.4l20.9,7.7c0.7,0.3,1.5,0.1,2-0.5l19.2-21l4.5,3.8c0.2,0.2,0.5,0.2,0.8,0.1
			c0.3-0.1,0.4-0.4,0.4-0.7l-1-10.9c0-0.4-0.4-0.7-0.8-0.6l-10.9,1c-0.3,0-0.5,0.2-0.6,0.5c0,0.1,0,0.2,0,0.3c0,0.2,0.1,0.4,0.3,0.5
			l4.5,3.8L48.4,34.6l-20.9-7.7c-0.7-0.3-1.5-0.1-2,0.5L12.7,40.7c-0.7,0.7-0.7,1.9,0.1,2.6C13.1,43.7,13.6,43.9,14.1,43.9z"/>
	</g>
</g>
</svg>
