<?xml version="1.0" encoding="utf-8"?>
<!-- Generator: Adobe Illustrator 17.1.0, SVG Export Plug-In . SVG Version: 6.00 Build 0)  -->
<!DOCTYPE svg PUBLIC "-//W3C//DTD SVG 1.1//EN" "http://www.w3.org/Graphics/SVG/1.1/DTD/svg11.dtd">
<svg version="1.1" id="Capa_1" xmlns="http://www.w3.org/2000/svg" xmlns:xlink="http://www.w3.org/1999/xlink" x="0px" y="0px"
	 viewBox="0 0 81 81" enable-background="new 0 0 81 81" xml:space="preserve">
<g>
	<g>
		<circle cx="40.5" cy="17.2" r="17.2"/>
		<path d="M47.8,35.6H33.2c-12.2,0-22,9.9-22,22v17.9l0,0.3l1.2,0.4C24,79.8,34.1,81,42.4,81c16.2,0,25.6-4.6,26.2-4.9l1.2-0.6h0.1
			V57.6C69.9,45.5,60,35.6,47.8,35.6z M43.9,70.3l-3.2,4.6c0,0.1-0.1,0.1-0.2,0.1c0,0,0,0,0,0c-0.1,0-0.1,0-0.2-0.1l-2.9-4.6
			c0,0,0-0.1,0-0.1l1.5-22.4c0-0.1,0.1-0.2,0.2-0.2h3c0.1,0,0.2,0.1,0.2,0.2l1.6,22.4C44,70.2,43.9,70.2,43.9,70.3z M42.5,46.8h-3.6
			l-3.1-6.5c0-0.6,0.5-1.1,1.1-1.1h7.5c0.6,0,1.1,0.5,1.1,1.1L42.5,46.8z"/>
	</g>
</g>
</svg>
